<svg width="82" height="82" viewBox="0 0 82 82" xmlns="http://www.w3.org/2000/svg" xmlns:xlink="http://www.w3.org/1999/xlink"><title>1</title><desc>Created using Figma</desc><use xlink:href="#a" transform="translate(55.5 54.5)" fill="#EB3441"/><g fill="#002543"><g transform="translate(1 1)"><use xlink:href="#b"/><use xlink:href="#c"/></g><g transform="translate(7.466 18.298)"><use xlink:href="#d"/><use xlink:href="#e"/></g><g transform="translate(23.19 19.471)"><use xlink:href="#f"/><use xlink:href="#g"/></g></g><g transform="translate(46.917 77.892)" fill="#002543"><use xlink:href="#h"/><use xlink:href="#i"/></g><g transform="translate(31.866 14.602)" fill="#002543"><use xlink:href="#j"/><use xlink:href="#k"/></g><defs><path id="a" d="M2.5 5.5L0 1V0h9L7 5.5l2 11-5.5 4-3.5-4 2.5-11z"/><path id="b" d="M64.597 52.872c3.053-1.856 5.097-5.209 5.097-9.027v-8.092c0-3.797-2.022-7.132-5.047-8.995C63.34 19.433 59.51 12.737 53.816 7.85A32.634 32.634 0 0 0 32.576 0C14.615 0 0 14.565 0 32.47c0 17.903 14.614 32.468 32.577 32.468 2.545 0 5.063-.293 7.515-.872-1.221 2.523-1.908 5.3-1.908 8.189v6.159c0 .643.523 1.164 1.168 1.164h3.868c.645 0 1.168-.521 1.168-1.164 0-.642-.523-1.164-1.168-1.164h-2.7v-4.995c0-3.225.958-6.352 2.754-9.107l.222-.326c1.687-2.475 4.006-4.55 6.665-6.02a19.86 19.86 0 0 1 3.537-1.517l1.894 3.67-2.532 10.952a1.16 1.16 0 0 0 .35 1.12l4.893 4.464a1.17 1.17 0 0 0 1.578 0l4.893-4.464a1.16 1.16 0 0 0 .35-1.12l-2.532-10.953 1.895-3.669a19.772 19.772 0 0 1 7.577 4.462c3.612 3.42 5.601 7.863 5.601 12.508v4.996H52.102a1.165 1.165 0 1 0 0 2.328h26.73c.645 0 1.168-.522 1.168-1.165v-6.159c-.001-8.986-6.64-16.9-15.403-19.383zm-1.35-24.238c2.456 1.43 4.11 4.085 4.11 7.119v2.773c-3.766-.697-5.29-4.515-5.358-4.689a1.165 1.165 0 0 0-1.01-.746 1.176 1.176 0 0 0-1.106.6c-.106.191-2.542 4.44-9.058 4.903v-2.842c0-.131.004-.261.01-.392l.01-.126a4.76 4.76 0 0 1 .02-.264l.014-.141c.01-.084.02-.168.032-.25l.02-.136a7.57 7.57 0 0 1 .05-.27c.007-.035.012-.07.02-.105.053-.257.118-.509.196-.757l.008-.024c.037-.117.076-.233.119-.347l.015-.04a8.28 8.28 0 0 1 .134-.34l.008-.02a8.289 8.289 0 0 1 2.664-3.382l.012-.01a11.547 11.547 0 0 1 .34-.24c.078-.051.157-.1.235-.15l.105-.066.147-.083a8.334 8.334 0 0 1 2.125-.851l.025-.008a8.292 8.292 0 0 1 2.443-.222l.103.008c.135.01.269.023.403.039l.074.009a8.24 8.24 0 0 1 2.874.932l.215.118zM42.358 60.426c-.194.25-.382.501-.565.758a30.336 30.336 0 0 1-9.217 1.426c-16.676.001-30.24-13.52-30.24-30.14 0-16.621 13.565-30.142 30.24-30.142a30.293 30.293 0 0 1 19.717 7.287 30.165 30.165 0 0 1 9.734 15.987 10.494 10.494 0 0 0-1.438-.307c-.063-.01-.125-.016-.188-.024a9.134 9.134 0 0 0-.677-.063l-.16-.01a10.815 10.815 0 0 0-1.889.085 26.184 26.184 0 0 0-8.826-13.166c-4.665-3.711-10.292-5.673-16.273-5.673-7.113 0-13.76 2.8-18.72 7.884-.45.46-.44 1.197.022 1.646a1.17 1.17 0 0 0 1.651-.023c4.516-4.629 10.57-7.179 17.047-7.179 5.445 0 10.569 1.786 14.815 5.164a23.834 23.834 0 0 1 8.016 11.91 9.903 9.903 0 0 0-.69.285l-.101.046a13.832 13.832 0 0 0-.466.231c-.052.029-.105.054-.156.083a10.557 10.557 0 0 0-5.275 7.078l-.018.08a10.7 10.7 0 0 0-.087.486l-.01.063a10.325 10.325 0 0 0-.093.917l-.01.148a9.98 9.98 0 0 0-.012.491v8.091c0 .115.003.23.007.344l.001.04.005.098.005.105c.008.148.02.296.034.444l.014.133c.013.115.027.23.044.343.01.065.019.13.03.194a11.184 11.184 0 0 0 .101.532 11.77 11.77 0 0 0 .18.706c.21.723.494 1.414.846 2.064a23.848 23.848 0 0 1-5.164 4.072 1.162 1.162 0 0 0-.415 1.593 1.167 1.167 0 0 0 1.598.415 26.177 26.177 0 0 0 5.337-4.137 10.713 10.713 0 0 0 2.474 2.082 21.824 21.824 0 0 0-11.227 7.553zm20.335 9.342l-3.602 3.286-3.603-3.286 2.266-9.804h2.673l2.266 9.804zm-6.671-15.066c.102-.02.206-.036.308-.054.07-.011.14-.023.211-.033a15.027 15.027 0 0 1 .884-.117l.235-.023c.203-.019.406-.036.61-.048l.139-.007c.14-.008.28-.01.42-.016.087.003.174.008.262.008.087 0 .175-.005.261-.008.14.005.281.008.42.016a12.528 12.528 0 0 1 .75.055l.234.023a18.148 18.148 0 0 1 .884.117l.21.033c.104.018.207.034.31.054l-1.516 2.934h-3.107l-1.515-2.934zm3.388-2.626c-.102-.003-.202-.007-.303-.008h-.031c-.102 0-.203.005-.303.008a8.32 8.32 0 0 1-1.73-.249l-.297-.087a8.324 8.324 0 0 1-5.853-6.86l-.007-.057c-.01-.082-.018-.165-.026-.248a9.403 9.403 0 0 1-.015-.18l-.01-.159v-.017a9.307 9.307 0 0 1-.01-.374v-2.918c5.276-.323 8.381-2.8 9.913-4.506 1.078 1.678 3.168 4.011 6.62 4.463v2.961c-.001 4.435-3.538 8.063-7.948 8.231z"/><path id="c" d="M64.597 52.872l-.234-.385-.882.536.994.282.122-.433zm.05-26.114l-.444.079.036.198.172.106.236-.383zM53.816 7.85l.293-.342-.293.342zM40.092 64.066l.405.197.412-.852-.92.217.103.438zm.428 13.184h-.45v.45h.45v-.45zm2.754-14.102v-.45h-.244l-.133.204.377.246zm0 0v.45h.239l.133-.197-.371-.253zm.222-.326l-.372-.253.372.253zm6.665-6.02l-.216-.395-.001.001.217.394zm3.537-1.517l.4-.206-.175-.337-.361.114.136.43zm1.894 3.67l.439.1.037-.16-.076-.147-.4.206zM53.06 69.906l.439.102-.439-.102zm.35 1.12l.303-.332-.303.332zm4.893 4.464l-.303.333.303-.333zm1.578 0l.302.333-.303-.333zm4.893-4.464l-.303-.332.303.332zm.35-1.12l-.44.101v.001l.44-.102zm-2.532-10.953l-.4-.206-.075.147.037.16.438-.1zm1.895-3.669l.136-.428-.362-.115-.174.337.4.206zm7.577 4.462l.31-.327-.31.327zm5.601 17.504v.45h.45v-.45h-.45zM80 72.255h.45H80zm-16.754-43.62l.227-.39-.009-.004-.218.393zm4.112 9.89l-.082.443.532.098v-.54h-.45zm-5.359-4.688l-.42.16V34l.42-.163zm-1.01-.746l.033-.449h-.002l-.03.45zm-1.106.6l.393.219-.393-.219zm-9.058 4.903h-.45v.483l.482-.034-.032-.449zm.01-3.234l-.449-.032v.01l.45.022zm.01-.126l.448.032v-.006l-.449-.026zm.02-.264l-.448-.043.448.043zm.014-.141l-.446-.054-.001.008-.001.008.448.038zm.032-.25l-.445-.069v.007l.445.061zm.02-.136l.444.078.001-.008-.444-.07zm.05-.27l-.442-.089v.002l.442.087zm.02-.105l-.441-.094-.001.005.441.089zm.196-.757l-.421-.158-.005.012-.004.012.43.134zm.008-.024l-.429-.136-.006.019-.004.019.44.098zm.119-.347l.421.157.002-.006-.423-.151zm.015-.04l-.422-.158-.003.007-.002.008.427.142zm.134-.34l-.396-.215-.01.019-.009.02.415.175zm.008-.02l-.414-.176-.001.003.415.174zm2.664-3.382l.27.36.011-.009.012-.01-.293-.341zm.012-.01l-.266-.363-.027.02-.024.023.317.32zm.282-.2l.255.37.002-.001-.257-.37zm.059-.04l.244.378.005-.004-.25-.374zm.234-.15l-.237-.383-.004.003.241.38zm.105-.066l.227.39.003-.003-.23-.387zm.147-.083l-.223-.391.223.39zm2.125-.851l.109.436.009-.002.009-.003-.127-.431zm.025-.008l-.106-.438-.01.003-.01.003.126.432zm2.443-.222l-.026.45.026-.45zm.103.008l.035-.449h-.009l-.026.45zm.403.039l-.055.447h.01l.045-.447zm.074.009l.058-.446h-.002l-.056.446zm2.874.932l.218-.394-.002-.002-.216.396zM42.36 60.426l.355.277-.355-.277zm-.565.758l.137.428.143-.045.087-.123-.367-.26zm-9.217 1.426v-.45.45zM52.293 9.615l.293-.342-.293.342zm9.734 15.987l-.125.432.738.213-.175-.748-.438.103zm-1.05-.245l.08-.443h-.003l-.077.443zm-.069-.01l-.08.442.007.001.007.002.066-.446zm-.319-.052l.064-.446-.064.446zm-.188-.024l-.056.447h.003l.053-.447zm-.367-.04l-.043.448h.005l.038-.448zm-.31-.023l.028-.45h-.002l-.026.45zm-.16-.01l.02-.449h-.002l-.018.45zm-1.89.086l-.431.124.107.372.384-.05-.06-.446zM48.85 12.117l.28-.352-.28.352zm-34.993 2.21l.322.315-.323-.314zm.022 1.647l-.313.323.313-.323zm1.651-.023l-.322-.314.322.314zm31.862-2.015l-.28.352.28-.352zm8.016 11.91l.156.422.394-.146-.118-.403-.432.127zm-.69.285l.186.41-.186-.41zm-.101.046l-.184-.411-.008.004.192.407zm-.244.117l.199.404-.2-.404zm-.222.114l-.212-.397-.004.002.216.395zm-.156.083l.215.395.005-.002-.22-.393zm-5.158 6.58l.433.122.002-.007-.435-.114zm-.023.09l.437.111.002-.008.002-.008-.44-.095zm-.094.408l.437.108.002-.01.002-.01-.44-.088zm-.018.08l-.44-.096v.007l.44.089zm-.087.486l.444.072v-.004l-.444-.068zm-.01.063l.446.066v-.002l-.445-.064zm-.052.415l.447.05v-.002l-.447-.048zm-.015.149l.448.04-.448-.04zm-.026.353l.449.027-.45-.027zm-.01.148l-.449-.023.45.023zm-.005 8.926h.45v-.016l-.45.016zm.001.04h-.45v.014l.45-.014zm.005.098l-.45.02v.006l.45-.026zm.005.105l.45-.024-.001-.008-.449.032zm.034.444l-.448.044.447-.044zm.014.133l-.448.04v.009l.448-.049zm.044.343l.446-.061v-.008l-.446.069zm.03.194l.444-.074v-.001l-.444.075zm.056.315l.442-.085v-.002l-.442.087zm.045.217l.44-.092-.001-.008-.439.1zm.047.202l-.438.104.438-.104zm.104.405l-.434.12.003.007.431-.127zm.029.099l-.434.12.002.005.432-.125zm.846 2.064l.324.312.228-.237-.157-.29-.395.215zm-5.164 4.072l-.227-.388.227.388zm-.415 1.593l.388-.228-.388.228zm1.598.415l.227.389-.227-.389zm5.337-4.137l.338-.297-.318-.362-.339.341.319.318zm2.474 2.082l.123.433.992-.28-.88-.537-.235.384zm9.108 16.895l.304.333.194-.178-.06-.256-.438.101zm-3.602 3.286l-.304.333.304.276.303-.276-.303-.333zm-3.603-3.286l-.439-.101-.059.256.194.178.304-.333zm2.266-9.804v-.45h-.358l-.08.348.438.102zm2.673 0l.439-.102-.08-.348h-.359v.45zm-4.405-5.262l-.084-.442-.593.112.277.536.4-.206zm.308-.054l-.069-.445-.008.002.077.443zm.211-.033l.063.446.008-.002-.07-.444zm.394-.058l.06.446h.001l-.06-.446zm.49-.059l-.045-.448h-.004l.05.448zm.235-.023l.04.448-.04-.448zm.61-.048l-.025-.45h-.002l.026.45zm.139-.007l.02.45h.005l-.025-.45zm.42-.016l.015-.45h-.031l.016.45zm.523 0l.016-.45h-.032l.016.45zm.42.016l-.024.45h.005l.02-.45zm.14.007l.026-.45h-.002l-.024.45zm.61.048l-.041.448.04-.448zm.234.023l.05-.447h-.005l-.045.447zm.49.06l-.061.445h.002l.059-.446zm.394.057l-.07.444.004.001.066-.445zm.21.033l.077-.444h-.007l-.07.444zm.31.054l.4.206.277-.537-.594-.111-.083.442zm-1.516 2.934v.45h.274l.126-.244-.4-.206zm-3.107 0l-.4.206.126.244h.274v-.45zm1.873-5.56l-.016.45h.033l-.017-.45zm-.303-.008l.004-.45h-.004v.45zm-.031 0v-.45h-.005l.005.45zm-.303.008l-.018.45h.033l-.015-.45zm-1.73-.249l-.127.432.008.002.008.002.111-.436zm-.297-.087l-.129.43.002.001.127-.431zm-5.853-6.86l-.448.046.002.012.446-.058zm-.007-.057l.448-.047-.002-.012-.446.06zm-.026-.248l-.448.042v.001l.448-.043zm-.015-.18l-.449.026v.007l.45-.033zm-.01-.159h-.45v.013l.001.012.45-.025zm0-.017h.45v-.018l-.45.018zm-.01-3.292l-.027-.449-.422.026v.423h.45zm9.913-4.506l.378-.243-.319-.497-.394.44.335.3zm6.62 4.463h.45v-.395l-.392-.052-.059.447zm0 2.961h.45-.45zm-2.528 9.411c3.18-1.934 5.313-5.428 5.313-9.41h-.9c0 3.653-1.956 6.863-4.88 8.641l.467.77zm5.313-9.41v-8.093h-.9v8.092h.9zm0-8.093c0-3.96-2.11-7.437-5.262-9.378l-.471.766c2.9 1.785 4.832 4.979 4.832 8.612h.9zm-5.055-9.074c-1.325-7.4-5.231-14.23-10.98-19.17l-.586.682c5.64 4.832 9.395 11.395 10.68 18.646l.886-.158zM54.11 7.509C48.143 2.398 40.451-.444 32.577-.45v.9a32 32 0 0 1 20.946 7.741l.586-.683zM32.577-.45C14.367-.45-.45 14.315-.45 32.47h.9C.45 14.814 14.861.45 32.577.45v-.9zM-.45 32.47c0 18.153 14.817 32.918 33.027 32.918v-.9C14.86 64.488.45 50.123.45 32.469h-.9zm33.027 32.918c2.571-.001 5.14-.3 7.619-.884l-.207-.876a32.07 32.07 0 0 1-7.412.86v.9zm7.11-1.518c-1.24 2.567-1.95 5.442-1.953 8.385h.9c-.003-2.834.66-5.513 1.863-7.992l-.81-.393zm-1.953 8.385v6.159h.9v-6.159h-.9zm0 6.159c0 .893.726 1.614 1.618 1.614v-.9a.716.716 0 0 1-.718-.714h-.9zm1.618 1.614h3.868v-.9h-3.868v.9zm3.868 0c.892 0 1.618-.72 1.618-1.614h-.9c0 .393-.32.714-.718.714v.9zm1.618-1.614c0-.892-.726-1.614-1.618-1.614v.9c.398 0 .718.322.718.714h.9zM43.22 76.8h-2.7v.9h2.7v-.9zm-2.25.45v-4.995h-.9v4.995h.9zm0-4.995c-.005-3.159.916-6.161 2.681-8.861l-.754-.492c-1.826 2.81-2.823 6.06-2.828 9.353h.9zm2.304-8.657v-.9.9zm.372-.197l.222-.325-.744-.507-.221.325.743.507zm.222-.325c1.653-2.432 3.894-4.437 6.511-5.88l-.435-.788c-2.703 1.497-5.1 3.642-6.82 6.161l.744.507zm6.51-5.88a19.208 19.208 0 0 1 3.456-1.482l-.272-.858a20.59 20.59 0 0 0-3.617 1.551l.433.79zm2.92-1.704l1.894 3.669.8-.413-1.894-3.67-.8.414zm1.856 3.361l-2.532 10.953.877.202 2.532-10.952-.877-.203zm-2.532 10.952a1.61 1.61 0 0 0 .485 1.555l.606-.666a.71.71 0 0 1-.214-.685l-.877-.204zm.485 1.554L58 75.825l.606-.665-4.893-4.464-.606.665zM58 75.825a1.83 1.83 0 0 0 1.092.423v-.9a.576.576 0 0 1-.486-.188l-.606.665zm1.092.423a1.83 1.83 0 0 0 1.091-.423l-.605-.665a.577.577 0 0 1-.486.188v.9zm1.092-.423l4.894-4.465-.607-.664-4.894 4.464.607.665zm4.894-4.464a1.61 1.61 0 0 0 .483-1.555l-.876.204a.71.71 0 0 1-.214.686l.606.665zm.483-1.554l-2.53-10.953-.877.203 2.53 10.952.877-.202zm-2.57-10.645l1.896-3.67-.8-.412-1.895 3.669.8.413zm1.36-3.447a19.13 19.13 0 0 1 7.404 4.36l.619-.654a20.417 20.417 0 0 0-7.75-4.564l-.273.858zm7.404 4.36c3.529 3.342 5.46 7.67 5.46 12.181h.9c0-4.778-2.047-9.336-5.741-12.834l-.62.653zm5.46 12.181v4.996h.9v-4.996h-.9zm.45 4.546H52.102v.9h25.563v-.9zm-25.563 0c-.891 0-1.617.72-1.617 1.613h.9c0-.392.32-.713.718-.713v-.9zm-1.617 1.613c0 .893.725 1.615 1.617 1.615v-.9a.716.716 0 0 1-.717-.715h-.9zm1.617 1.615h26.73v-.9h-26.73v.9zm26.73 0c.892 0 1.618-.722 1.618-1.615h-.9c0 .393-.32.715-.718.715v.9zm1.618-1.615v-6.159h-.9v6.159h.9zm0-6.159c-.001-9.211-6.797-17.285-15.73-19.816l-.245.866c8.593 2.434 15.074 10.188 15.075 18.95h.9zM63.02 29.023c2.325 1.354 3.888 3.864 3.888 6.73h.9c0-3.202-1.747-6-4.335-7.507l-.453.777zm3.888 6.73v2.773h.9v-2.773h-.9zm.531 2.33c-1.771-.312-2.965-1.348-3.798-2.38-.822-1.008-1.19-1.943-1.222-2.028l-.84.325a9.54 9.54 0 0 0 1.362 2.269c.888 1.094 2.34 2.315 4.335 2.7l.163-.886zm-5.019-4.405a1.615 1.615 0 0 0-1.398-1.035l-.065.897c.283.02.524.2.621.457l.842-.319zm-1.4-1.036a1.625 1.625 0 0 0-1.53.83l.786.438a.726.726 0 0 1 .682-.37l.062-.898zm-1.53.83c-.071.127-2.397 4.226-8.696 4.673l.063.898c6.732-.478 9.277-4.878 9.42-5.133l-.787-.438zm-8.215 5.122v-2.842h-.9v2.842h.9zm0-2.842c0-.125.004-.244.01-.37l-.899-.044c-.007.135-.01.277-.01.414h.9zm.01-.36l.008-.126-.897-.063-.01.125.898.064zm.009-.132c.004-.083.01-.162.019-.247l-.896-.086a7.29 7.29 0 0 0-.022.282l.899.051zm.019-.247l.015-.147-.897-.075-.014.136.896.086zm.013-.131l.031-.242-.891-.123-.033.258.893.107zm.03-.236l.019-.125-.886-.157c-.01.057-.017.107-.022.147l.89.135zm.02-.133a7.1 7.1 0 0 1 .046-.254l-.883-.173a8.32 8.32 0 0 0-.052.286l.89.141zm.046-.252c.009-.044.014-.08.02-.105l-.883-.177c-.009.045-.014.08-.02.105l.883.177zm.018-.1c.053-.247.112-.479.186-.716l-.859-.268c-.08.26-.15.531-.207.797l.88.187zm.178-.691a.393.393 0 0 0 .005-.012.53.53 0 0 0 .021-.073l-.878-.196a.367.367 0 0 1 .014-.048l.001-.002a.46.46 0 0 0-.005.014l.842.317zm.016-.048c.036-.113.071-.219.111-.325l-.843-.314a7.979 7.979 0 0 0-.126.368l.858.271zm.113-.33l.004-.011a.37.37 0 0 0 .014-.039l-.853-.285c0-.004.002-.005 0 0l-.012.03.847.304zm.013-.036c.041-.11.082-.216.127-.321l-.829-.351c-.05.118-.098.242-.141.358l.843.314zm.109-.283a.973.973 0 0 0 .027-.059l-.83-.347.01-.022.793.428zm.026-.056a7.654 7.654 0 0 1 2.52-3.199l-.539-.72a8.934 8.934 0 0 0-2.809 3.566l.828.353zm2.543-3.217a.521.521 0 0 0 .037-.034l-.635-.637a.457.457 0 0 1 .014-.014l.006-.005s.001-.001 0 0l-.007.006.585.684zm-.014.01a10.7 10.7 0 0 1 .27-.192l-.51-.74a12.23 12.23 0 0 0-.293.207l.533.725zm.272-.193l.046-.031-.489-.756-.072.049.515.738zm.051-.035c.071-.047.146-.093.226-.144l-.482-.76c-.076.048-.16.1-.243.156l.5.748zm.223-.142l.094-.059-.453-.778c-.048.028-.088.055-.116.072l.475.765zm.097-.06c.04-.025.087-.05.141-.081l-.448-.78c-.045.025-.097.053-.152.086l.459.774zm.14-.08a7.698 7.698 0 0 1 2.01-.806L57 27.321c-.79.198-1.56.51-2.239.897l.446.781zm2.029-.81a.803.803 0 0 0 .027-.01c.006-.001.002 0-.002.001l-.254-.863-.027.008c-.006.002-.002.001.002 0l.254.863zm.004-.003a7.654 7.654 0 0 1 1.854-.223v-.9c-.705 0-1.412.09-2.066.248l.212.875zm1.854-.223c.154 0 .302.004.457.014l.052-.899a8.835 8.835 0 0 0-.51-.015v.9zm.457.014c.022 0 .056.005.103.007l.052-.898-.103-.008-.052.898zm.094.007c.132.01.256.021.383.037l.11-.894a9.613 9.613 0 0 0-.423-.04l-.07.897zm.393.038a.721.721 0 0 1 .063.008l.112-.894-.086-.01-.089.896zm.06.007a7.602 7.602 0 0 1 2.718.88l.43-.79a8.888 8.888 0 0 0-3.03-.982l-.117.892zm2.716.88l.215.118.435-.787-.215-.12-.435.788zm-20.81 31.24a21.71 21.71 0 0 0-.576.773l.733.521c.18-.252.362-.495.553-.741l-.71-.553zm-.346.605a29.693 29.693 0 0 1-9.081 1.405v.9a30.979 30.979 0 0 0 9.354-1.448l-.273-.857zm-9.081 1.405c-16.428.001-29.791-13.32-29.791-29.69h-.9c0 16.87 13.768 30.591 30.69 30.59v-.9zM2.786 32.47c0-16.371 13.362-29.692 29.79-29.692v-.9c-16.922 0-30.69 13.72-30.69 30.591h.9zm29.79-29.692A29.659 29.659 0 0 1 52 9.956l.586-.683c-5.543-4.745-12.694-7.388-20.01-7.395v.9zM52 9.956c4.83 4.136 8.162 9.63 9.59 15.749l.876-.206c-1.47-6.252-4.95-11.99-9.88-16.226L52 9.956zM62.151 25.17a11.16 11.16 0 0 0-1.094-.256l-.16.886c.345.062.673.139 1.005.234l.25-.864zm-1.097-.256a3.504 3.504 0 0 0-.08-.013l-.132.89.058.01.154-.887zm-.064-.01a9.052 9.052 0 0 0-.337-.055l-.128.891a6.8 6.8 0 0 1 .302.049l.163-.885zm-.337-.055c-.07-.01-.138-.017-.199-.025l-.106.894.178.022.127-.89zm-.196-.024a9.577 9.577 0 0 0-.385-.042l-.076.897c.117.01.229.023.349.038l.112-.893zm-.38-.041c-.109-.011-.22-.018-.325-.025l-.056.898c.103.007.199.013.295.022l.087-.895zm-.327-.025l-.166-.01-.04.9c.047.001.098.005.155.008l.05-.898zm-.168-.01a11.937 11.937 0 0 0-.49-.012v.9c.15 0 .299.005.453.011l.037-.899zm-.49-.012c-.498 0-1 .038-1.476.1l.118.893c.451-.06.893-.093 1.358-.093v-.9zm-.985.422c-1.51-5.219-4.692-9.977-8.977-13.394l-.56.704a25.546 25.546 0 0 1 8.672 12.94l.865-.25zM49.13 11.765C44.4 8.01 38.632 6 32.576 5.995v.9c5.906-.007 11.39 1.905 15.993 5.574l.56-.704zm-16.554-5.77c-7.234 0-13.998 2.848-19.043 8.018l.645.629c4.874-4.996 11.406-7.748 18.398-7.748v-.9zm-19.043 8.018a1.612 1.612 0 0 0 .032 2.284l.627-.646a.712.712 0 0 1-.014-1.009l-.645-.629zm.033 2.284a1.62 1.62 0 0 0 2.285-.032l-.644-.628a.72.72 0 0 1-1.016.013l-.625.647zm2.285-.032c4.431-4.542 10.37-7.043 16.725-7.043v-.9c-6.598 0-12.768 2.599-17.369 7.315l.644.628zm16.725-7.043c5.37-.006 10.352 1.73 14.535 5.066l.56-.704a24.198 24.198 0 0 0-15.095-5.262v.9zm14.535 5.066a23.196 23.196 0 0 1 7.864 11.684l.864-.253c-1.387-4.725-4.281-9.037-8.167-12.135l-.56.704zm8.14 11.136c-.244.09-.487.192-.72.297l.372.82c.22-.1.434-.19.66-.273l-.312-.845zm-.72.297l-.098.045.366.822.104-.047-.372-.82zm-.107.049l-.252.121.4.807c.077-.039.154-.076.236-.114l-.384-.814zm-.25.12a8.62 8.62 0 0 0-.236.12l.423.795c.072-.037.138-.072.21-.107l-.398-.808zm-.24.123c-.043.024-.098.05-.16.086l.44.785c.04-.023.09-.048.152-.08l-.432-.79zm-.156.083a11.007 11.007 0 0 0-5.377 6.862l.87.228a10.107 10.107 0 0 1 4.938-6.3l-.43-.79zm-5.375 6.855c-.01.034-.02.077-.03.116l.88.189a.927.927 0 0 1 .016-.063l-.866-.242zm-.026.1c-.035.138-.07.284-.1.43l.883.176c.026-.128.056-.252.09-.384l-.873-.223zm-.095.41l-.02.092.879.192.015-.068-.874-.215zm-.022.099c-.033.164-.065.336-.091.507l.89.136a9.84 9.84 0 0 1 .083-.465l-.882-.178zm-.09.502l-.01.072.89.128.008-.055-.888-.145zm-.01.07c-.021.142-.04.29-.055.433l.894.096c.015-.135.031-.264.051-.397l-.89-.132zm-.055.431a8.414 8.414 0 0 0-.016.159l.896.08a6.77 6.77 0 0 1 .014-.14l-.894-.099zm-.016.159c-.01.12-.02.245-.028.367l.899.053a11 11 0 0 1 .025-.34l-.896-.08zm-.028.366l-.009.152.899.045.009-.143-.899-.054zm-.009.153c-.008.167-.013.341-.013.513h.9c0-.16.004-.311.012-.47l-.899-.043zm-.013.513v8.091h.9v-8.09h-.9zm0 8.091c0 .12.003.242.007.36l.9-.032a9.23 9.23 0 0 1-.007-.328h-.9zm.007.344l.001.045v-.005h.9l-.001-.045v.005h-.9zm.001.054l.005.104.9-.04-.005-.092-.9.028zm.005.11l.006.11.898-.063-.005-.099-.899.052zm.006.103c.008.153.02.31.035.464l.895-.088a9.581 9.581 0 0 1-.032-.424l-.898.048zm.035.465l.014.129.896-.081-.015-.138-.895.09zm.015.137c.013.118.028.243.047.362l.89-.137a7.213 7.213 0 0 1-.043-.322l-.894.097zm.046.355c.009.068.02.139.031.208l.887-.15a5.678 5.678 0 0 1-.027-.18l-.891.122zm.03.206c.019.108.038.22.06.328l.883-.173c-.02-.1-.037-.198-.054-.302l-.888.147zm.06.327c.014.074.03.154.047.232l.878-.2a5.634 5.634 0 0 1-.042-.202l-.884.17zm.046.224c.015.074.033.148.049.214l.875-.208-.043-.19-.881.184zm.049.215c.034.14.07.283.109.42l.867-.24a8.566 8.566 0 0 1-.1-.39l-.876.21zm.11.427l.027.092.867-.24-.03-.107-.863.255zm.029.098c.217.745.52 1.481.882 2.152l.791-.428a9.829 9.829 0 0 1-.81-1.976l-.863.252zm.953 1.626a23.206 23.206 0 0 1-5.066 3.996l.455.777a24.494 24.494 0 0 0 5.26-4.15l-.649-.623zm-5.066 3.996a1.612 1.612 0 0 0-.576 2.21l.775-.457a.712.712 0 0 1 .256-.976l-.455-.777zm-.576 2.21c.301.512.843.796 1.395.796v-.9a.717.717 0 0 1-.62-.353l-.775.457zm1.395.796c.257-.003.576-.085.818-.221l-.454-.777a.571.571 0 0 1-.364.098v.9zm.818-.221a26.828 26.828 0 0 0 5.429-4.209l-.638-.635a25.536 25.536 0 0 1-5.245 4.067l.454.777zm4.772-4.23a11.36 11.36 0 0 0 2.578 2.17l.468-.768a10.074 10.074 0 0 1-2.37-1.995l-.676.593zm2.69 1.353c-4.58 1.303-8.644 4.098-11.46 7.71l.71.552a21.186 21.186 0 0 1 10.995-7.396l-.246-.866zm8.927 16.996l-3.603 3.286.607.665 3.603-3.286-.607-.665zm-2.996 3.286l-3.603-3.286-.607.665 3.603 3.286.607-.665zm-3.468-2.852l2.266-9.805-.877-.203-2.266 9.805.877.203zm1.828-9.456h2.673v-.9h-2.673v.9zm2.235-.35l2.266 9.806.877-.203-2.266-9.805-.877.203zm-3.884-4.92c.097-.018.198-.035.303-.053l-.155-.886c-.1.017-.207.034-.315.055l.167.884zm.294-.051c.074-.012.14-.024.205-.033l-.125-.89c-.078.01-.15.023-.218.033l.138.89zm.213-.034a17.6 17.6 0 0 1 .382-.056l-.118-.892c-.135.018-.272.038-.406.06l.142.888zm.384-.056c.16-.022.317-.04.478-.058l-.098-.894a19.49 19.49 0 0 0-.502.06l.122.892zm.475-.057c.08-.008.155-.017.229-.023l-.08-.897-.24.024.09.896zm.23-.023c.201-.019.397-.035.595-.047l-.053-.898c-.21.012-.42.03-.624.048l.082.897zm.592-.047l.135-.006-.038-.9-.145.008.048.898zm.142-.007c.13-.007.266-.01.41-.015l-.032-.9c-.136.006-.281.008-.43.017l.051.898zm.379-.015c.083.003.178.008.277.008v-.9c-.076 0-.155-.004-.247-.007l-.03.9zm.277.008c.098 0 .194-.005.277-.008l-.032-.9c-.09.004-.17.008-.245.008v.9zm.245-.008c.143.005.28.008.412.015l.048-.898c-.146-.008-.291-.011-.428-.016l-.032.9zm.417.016l.135.006.048-.898-.145-.008-.038.9zm.134.006c.195.011.391.029.594.047l.08-.897a18.646 18.646 0 0 0-.623-.048l-.051.898zm.594.047c.074.006.15.015.23.023l.09-.896-.24-.024-.08.897zm.226.022c.162.018.32.036.478.058l.122-.892a18.995 18.995 0 0 0-.502-.06l-.098.894zm.48.058c.129.017.253.036.382.056l.142-.889c-.134-.02-.27-.041-.407-.059l-.117.892zm.387.057l.207.032.14-.889-.215-.033-.132.89zm.2.031l.303.053.166-.884-.316-.056-.153.887zm-.014-.596l-1.515 2.934.8.413 1.515-2.934-.8-.413zm-1.116 2.69h-3.107v.9h3.108v-.9zm-2.707.244l-1.516-2.934-.8.413 1.516 2.934.8-.413zm1.488-5.802c-.1-.004-.206-.008-.314-.01l-.008.9c.094.002.188.006.291.01l.031-.9zm-.318-.01h-.031v.9h.031v-.9zm-.036 0c-.108.002-.215.006-.314.01l.031.9c.102-.004.197-.008.292-.01l-.009-.9zm-.28.01a7.678 7.678 0 0 1-1.637-.236l-.222.872a8.975 8.975 0 0 0 1.823.263l.035-.9zm-1.62-.232l-.298-.087-.254.863.297.088.254-.864zm-.297-.087a7.874 7.874 0 0 1-5.535-6.486l-.892.116a8.774 8.774 0 0 0 6.17 7.233l.257-.863zm-5.533-6.474l-.007-.058-.895.094.006.056.896-.092zm-.009-.07c-.01-.073-.016-.148-.024-.232l-.896.086c.008.082.016.173.028.265l.892-.12zm-.024-.23l-.014-.172-.897.066.015.189.896-.084zm-.013-.165c-.004-.056-.008-.108-.01-.158l-.899.05.01.16.899-.052zm-.01-.133l-.002-.05v.006a.37.37 0 0 1 .002.027h-.9v.036l.002.01v.003a.17.17 0 0 1-.002-.032h.9zm0-.035a8.657 8.657 0 0 1-.01-.356h-.9c0 .132.005.266.01.392l.9-.036zm-.01-.356v-2.918h-.9v2.918h.9zm-.422-2.468c5.42-.333 8.628-2.883 10.22-4.656l-.67-.6c-1.472 1.639-4.473 4.042-9.605 4.357l.055.898zm9.506-4.713c1.111 1.73 3.3 4.19 6.94 4.666l.117-.893c-3.263-.426-5.255-2.633-6.3-4.26l-.757.487zm6.548 4.22v2.961h.9v-2.961h-.9zm0 2.961c0 4.191-3.343 7.622-7.514 7.782l.034.899c4.65-.178 8.38-4.001 8.38-8.68h-.9z"/><path id="d" d="M35.885 38.079a1.17 1.17 0 0 0-1.502-.685 23.758 23.758 0 0 1-8.272 1.474C13 38.868 2.335 28.238 2.335 15.17c0-4.792 1.428-9.41 4.13-13.35A1.162 1.162 0 0 0 6.158.202a1.171 1.171 0 0 0-1.623.304A25.833 25.833 0 0 0 0 15.17c0 14.35 11.713 26.024 26.11 26.024 3.125 0 6.182-.545 9.086-1.62.604-.223.913-.892.689-1.495z"/><path id="e" d="M35.885 38.079l.422-.157-.422.157zm-1.502-.685l.156.422-.156-.422zM6.464 1.82l.371.255-.37-.255zM6.16.203l.254-.372-.254.372zM4.536.507l-.37-.255h-.001l.371.255zm30.66 39.067l-.156-.422.156.422zm1.11-1.653a1.62 1.62 0 0 0-2.08-.95l.314.844a.72.72 0 0 1 .923.422l.843-.316zm-2.08-.95a23.117 23.117 0 0 1-8.115 1.447v.9a24.402 24.402 0 0 0 8.428-1.502l-.313-.844zm-8.115 1.447c-12.863 0-23.326-10.43-23.326-23.247h-.9c0 13.317 10.869 24.147 24.226 24.147v-.9zM2.785 15.17a22.881 22.881 0 0 1 4.05-13.096l-.742-.509A24.155 24.155 0 0 0 1.885 15.17h.9zm4.05-13.096A1.612 1.612 0 0 0 6.413-.17l-.507.744a.71.71 0 0 1 .187.991l.742.509zM6.413-.17a1.621 1.621 0 0 0-2.248.42l.742.511a.721.721 0 0 1 .999-.187l.507-.744zM4.165.253A26.47 26.47 0 0 0-.45 15.17h.9A25.197 25.197 0 0 1 4.907.761L4.165.253zM-.45 15.17c0 14.6 11.916 26.475 26.56 26.475v-.9C11.96 40.745.45 29.27.45 15.17h-.9zm26.56 26.475c3.165-.002 6.3-.561 9.242-1.649l-.312-.844a25.436 25.436 0 0 1-8.93 1.593v.9zm9.242-1.649a1.612 1.612 0 0 0 .955-2.074l-.844.314a.712.712 0 0 1-.423.916l.312.844z"/><path id="f" d="M11.538 9.246V1.163C11.538.521 11.016 0 10.371 0c-.646 0-1.168.52-1.168 1.163v8.083c-2.136.524-3.726 2.449-3.726 4.736a4.84 4.84 0 0 0 .978 2.924L.308 23.573a1.16 1.16 0 0 0 .07 1.645c.225.206.507.307.79.307.315 0 .63-.126.86-.377l6.235-6.765a4.875 4.875 0 0 0 2.109.477c2.698 0 4.895-2.188 4.895-4.879-.001-2.288-1.592-4.213-3.729-4.736zm-1.167 7.288a2.558 2.558 0 0 1-2.559-2.55 2.557 2.557 0 0 1 2.56-2.55 2.557 2.557 0 0 1 2.558 2.55 2.558 2.558 0 0 1-2.559 2.55z"/><path id="g" d="M11.538 9.246h-.45V9.6l.343.084.107-.437zm-2.335 0l.107.437.343-.084v-.353h-.45zm-2.748 7.66l.33.305.255-.276-.226-.3-.359.27zM.308 23.573l.33.305-.33-.305zm.07 1.645l.305-.331v-.001l-.304.332zm1.65-.07l-.331-.305.33.305zm6.235-6.765l.194-.406-.3-.143-.224.244.33.305zm7.004-4.402h.45-.45zm-3.279-4.736V1.163h-.9v8.083h.9zm0-8.083c0-.892-.725-1.613-1.617-1.613v.9c.398 0 .717.32.717.713h.9zM10.371-.45c-.892 0-1.618.72-1.618 1.613h.9c0-.392.32-.713.718-.713v-.9zM8.753 1.163v8.083h.9V1.163h-.9zm.343 7.646c-2.331.572-4.07 2.672-4.07 5.174h.9c0-2.075 1.443-3.824 3.384-4.3l-.214-.874zm-4.07 5.174a5.484 5.484 0 0 0 1.07 3.193l.718-.541a4.213 4.213 0 0 1-.887-2.653h-.9zM6.125 16.6l-6.147 6.67.662.61 6.147-6.67-.662-.61zm-6.147 6.67a1.61 1.61 0 0 0 .098 2.281l.607-.664a.71.71 0 0 1-.043-1.008l-.662-.61zm.097 2.28c.296.26.734.42 1.094.426v-.9a.57.57 0 0 1-.485-.188l-.609.662zm1.094.426c.436 0 .871-.175 1.19-.522l-.661-.61a.715.715 0 0 1-.529.232v.9zm1.19-.522l6.236-6.765-.661-.61-6.236 6.765.662.61zM8.07 18.79a5.526 5.526 0 0 0 2.303.521v-.9a4.243 4.243 0 0 1-1.915-.433l-.388.812zm2.303.521c2.946 0 5.345-2.388 5.345-5.329h-.9c0 2.44-1.994 4.43-4.445 4.43v.9zm5.345-5.33c-.001-2.5-1.74-4.601-4.072-5.172l-.214.874c1.942.476 3.385 2.225 3.386 4.3l.9-.001zm-5.346 2.103a2.108 2.108 0 0 1-2.109-2.1h-.9c0 1.655 1.35 3 3.01 3v-.9zm-2.109-2.1c0-1.157.945-2.1 2.11-2.1v-.9a3.007 3.007 0 0 0-3.01 3h.9zm2.11-2.1c1.163 0 2.108.943 2.108 2.1h.9c0-1.657-1.351-3-3.009-3v.9zm2.108 2.1c0 1.155-.945 2.1-2.109 2.1v.9a3.008 3.008 0 0 0 3.01-3h-.9z"/><path id="h" d="M1.703.006h-.016A1.55 1.55 0 0 0 .006 1.417a1.56 1.56 0 0 0 1.561 1.691c.8 0 1.48-.61 1.551-1.417A1.557 1.557 0 0 0 1.703.006z"/><path id="i" d="M1.703.006l.04-.448H1.73l-.013-.001-.014.45zm-.016 0l-.04.448.013.001h.013l.014-.449zm-.258 3.095l.053-.447-.014-.002-.039.449zm1.69-1.41l.448.04V1.73l-.449-.04zM1.716-.443H1.7l-.028.899h.016l.028-.9zm.009 0a2 2 0 0 0-2.168 1.82l.896.08A1.1 1.1 0 0 1 1.648.454l.078-.896zm-2.168 1.82A2.01 2.01 0 0 0 1.39 3.55l.078-.897A1.11 1.11 0 0 1 .454 1.457l-.896-.08zm1.819 2.17c.063.008.136.011.19.011v-.9c-.035 0-.055 0-.085-.004l-.105.894zm.19.011c1.03 0 1.907-.784 2-1.828l-.897-.079a1.107 1.107 0 0 1-1.103 1.007v.9zm2-1.828A2.007 2.007 0 0 0 1.743-.442l-.08.897c.61.054 1.06.591 1.007 1.196l.897.079z"/><path id="j" d="M1.703.006h-.016A1.55 1.55 0 0 0 .006 1.417a1.56 1.56 0 0 0 1.561 1.691c.8 0 1.48-.61 1.551-1.417A1.558 1.558 0 0 0 1.703.006z"/><path id="k" d="M1.703.006l.04-.448H1.73l-.013-.001-.014.45zm-.016 0l-.04.448.013.001h.013l.014-.449zm-.258 3.095l.053-.447-.014-.002-.039.449zm1.69-1.41l.448.04V1.73l-.449-.04zM1.716-.443H1.7l-.028.899h.016l.028-.9zm.009 0a2 2 0 0 0-2.168 1.82l.896.08A1.1 1.1 0 0 1 1.648.454l.078-.896zm-2.168 1.82A2.01 2.01 0 0 0 1.39 3.55l.078-.897A1.11 1.11 0 0 1 .454 1.457l-.896-.08zm1.819 2.17c.063.008.136.011.19.011v-.9c-.035 0-.055 0-.085-.004l-.105.894zm.19.011c1.03 0 1.907-.784 2-1.828l-.897-.079a1.107 1.107 0 0 1-1.103 1.007v.9zm2-1.828A2.008 2.008 0 0 0 1.743-.442l-.08.897c.61.054 1.06.591 1.007 1.196l.897.079z"/></defs></svg>