<svg width="51" height="70" viewBox="0 0 51 70" xmlns="http://www.w3.org/2000/svg" xmlns:xlink="http://www.w3.org/1999/xlink"><title>2</title><desc>Created using Figma</desc><use xlink:href="#a" transform="translate(10.981 50.867)" fill="#EB3441"/><g transform="translate(23.969 26.658)" fill="#002543"><use xlink:href="#b"/><use xlink:href="#c"/></g><g transform="translate(13.099 7.004)" fill="#002543"><use xlink:href="#d"/><use xlink:href="#e"/></g><g transform="translate(23.969 33.707)" fill="#002543"><use xlink:href="#f"/><use xlink:href="#g"/></g><g transform="translate(23.969 40.756)" fill="#002543"><use xlink:href="#h"/><use xlink:href="#i"/></g><g transform="translate(1 1)" fill="#002543"><use xlink:href="#j"/><use xlink:href="#k"/></g><g transform="translate(12.849 17.598)" fill="#002543"><use xlink:href="#l"/><use xlink:href="#m"/></g><defs><path id="a" d="M0 10.88L14.972 0l15.88 10.88H0z"/><path id="b" d="M2.64 1.328c0 .733-.591 1.328-1.32 1.328C.59 2.656 0 2.061 0 1.328 0 .594.591 0 1.32 0c.729 0 1.32.594 1.32 1.328z"/><path id="c" d="M1.32 0v.375V0zm.945 1.328a.95.95 0 0 1-.945.953v.75a1.7 1.7 0 0 0 1.695-1.703h-.75zm-.945.953a.95.95 0 0 1-.945-.953h-.75A1.7 1.7 0 0 0 1.32 3.031v-.75zm-.945-.953C.375.799.8.375 1.32.375v-.75c-.938 0-1.695.764-1.695 1.703h.75zM1.32.375c.52 0 .945.424.945.953h.75c0-.939-.757-1.704-1.695-1.703v.75z"/><path id="d" d="M2.64 1.328c0 .734-.59 1.328-1.32 1.328C.591 2.656 0 2.061 0 1.328 0 .595.591 0 1.32 0c.73 0 1.32.595 1.32 1.328z"/><path id="e" d="M2.265 1.328a.949.949 0 0 1-.945.953v.75c.938 0 1.695-.764 1.695-1.703h-.75zm-.945.953a.95.95 0 0 1-.945-.953h-.75A1.7 1.7 0 0 0 1.32 3.031v-.75zm-.945-.953A.95.95 0 0 1 1.32.375v-.75A1.7 1.7 0 0 0-.375 1.328h.75zM1.32.375a.95.95 0 0 1 .945.953h.75A1.7 1.7 0 0 0 1.32-.375v.75z"/><path id="f" d="M2.64 1.328c0 .734-.591 1.328-1.32 1.328C.59 2.656 0 2.062 0 1.328 0 .594.591 0 1.32 0c.729 0 1.32.594 1.32 1.328z"/><path id="g" d="M2.265 1.328a.949.949 0 0 1-.945.953v.75c.938 0 1.695-.764 1.695-1.703h-.75zm-.945.953a.949.949 0 0 1-.945-.953h-.75c0 .939.757 1.703 1.695 1.703v-.75zm-.945-.953C.375.799.8.375 1.32.375v-.75c-.938 0-1.695.764-1.695 1.703h.75zM1.32.375a.95.95 0 0 1 .945.953h.75A1.7 1.7 0 0 0 1.32-.375v.75z"/><path id="h" d="M2.64 1.328c0 .733-.591 1.328-1.32 1.328C.59 2.656 0 2.061 0 1.328 0 .594.591 0 1.32 0c.729 0 1.32.594 1.32 1.328z"/><path id="i" d="M1.32 0v.375V0zm.945 1.328a.95.95 0 0 1-.945.953v.75a1.7 1.7 0 0 0 1.695-1.703h-.75zm-.945.953a.95.95 0 0 1-.945-.953h-.75A1.7 1.7 0 0 0 1.32 3.031v-.75zm-.945-.953C.375.799.8.375 1.32.375v-.75c-.938 0-1.695.764-1.695 1.703h.75zM1.32.375a.95.95 0 0 1 .945.953h.75A1.7 1.7 0 0 0 1.32-.375v.75z"/><path id="j" d="M35.843 33.832a15.795 15.795 0 0 0 7.231-13.316V8.615C46.404 8.23 49 5.378 49 1.926v-.598C49 .594 48.409 0 47.68 0H1.32C.591 0 0 .595 0 1.328v.598C0 5.392 2.617 8.255 5.968 8.62v11.896c0 5.41 2.703 10.386 7.231 13.315a.19.19 0 0 1 .093.17.19.19 0 0 1-.093.168c-4.528 2.929-7.23 7.906-7.23 13.315V59.34C2.675 59.351 0 62.048 0 65.363v1.309C0 67.406.591 68 1.32 68h46.36c.73 0 1.32-.595 1.32-1.328v-1.31c0-3.3-2.653-5.987-5.926-6.02V47.483c0-5.41-2.703-10.386-7.23-13.316A.19.19 0 0 1 35.75 34c0-.072.032-.129.092-.168zm7.17 28.164c1.839 0 3.337 1.5 3.347 3.348H2.64c.01-1.847 1.508-3.348 3.347-3.348h37.027zM12.917 59.34l11.603-9.422 11.576 9.422H12.917zm21.498-22.937a13.145 13.145 0 0 1 6.018 11.081v11.061L25.11 47.246a1.308 1.308 0 0 0-1.175 0L8.61 58.526V47.484c0-4.501 2.25-8.643 6.018-11.081A2.848 2.848 0 0 0 15.932 34a2.85 2.85 0 0 0-1.305-2.404 13.144 13.144 0 0 1-6.018-11.08V7.561A1.325 1.325 0 0 0 7.31 6.004h-.616c-1.987 0-3.645-1.446-3.988-3.348h43.59c-.344 1.902-2.001 3.348-3.989 3.348H19.515c-.73 0-1.32.594-1.32 1.328 0 .733.59 1.328 1.32 1.328h20.918v11.857c0 4.5-2.25 8.642-6.018 11.08a2.85 2.85 0 0 0-1.305 2.404 2.85 2.85 0 0 0 1.305 2.402z"/><path id="k" d="M35.843 33.832l-.204-.315-.001.001.205.314zm7.231-25.217l-.043-.373-.332.039v.334h.375zM5.968 8.62h.375v-.337l-.334-.036-.04.373zM13.2 33.83l-.204.315.002.001.202-.316zm0 .338l.204.315-.204-.315zM5.97 59.34v.375h.374v-.375h-.375zm37.105.001H42.7v.371l.371.004.004-.375zm-7.23-25.173l-.205.315.204-.315zM46.36 65.344v.375h.377l-.002-.377-.375.002zm-43.72 0l-.375-.002-.002.377h.377v-.375zm4.646-3.348l.04-.372-.02-.003h-.02v.375zm.003 0l-.04.374.038.004.04-.004-.038-.373zm.005 0v-.375h-.02l-.018.002.038.373zm5.623-2.656l-.236-.291-.82.666h1.056v-.375zm11.603-9.422l.237-.29-.237-.193-.236.192.236.291zm11.576 9.422v.375h1.055l-.819-.666-.236.291zm-1.68-22.937l.203-.315-.204.315zm6.017 22.142l-.222.302.597.44v-.742h-.375zM25.11 47.246l.223-.301-.026-.02-.028-.014-.169.335zm-1.175 0l-.168-.335-.028.014-.026.019.222.302zM8.61 58.526h-.375v.741l.598-.44-.223-.301zm6.018-22.123l-.203-.315.203.315zm0-4.806l.204-.314-.204.314zM8.61 7.562l-.369-.065-.006.032v.033h.375zM2.706 2.656v-.375h-.448l.08.441.368-.066zm43.59 0l.368.067.08-.442h-.449v.375zM40.432 8.66h.375v-.375h-.375v.375zm-6.018 22.937l.204.315-.204-.315zm1.632 2.55a16.17 16.17 0 0 0 7.402-13.63h-.75c0 5.28-2.639 10.14-7.06 13l.408.63zm7.402-13.63V8.614h-.75v11.901h.75zm-.332-11.53c3.52-.406 6.258-3.418 6.258-7.06h-.75c0 3.26-2.452 5.953-5.594 6.315l.086.745zm6.258-7.06v-.599h-.75v.598h.75zm0-.599c0-.939-.757-1.703-1.695-1.703v.75c.52 0 .945.424.945.953h.75zM47.68-.375H1.32v.75h46.36v-.75zm-46.36 0A1.7 1.7 0 0 0-.375 1.328h.75A.95.95 0 0 1 1.32.375v-.75zM-.375 1.328v.598h.75v-.598h-.75zm0 .598c0 3.658 2.762 6.681 6.303 7.066l.08-.745C2.849 7.903.376 5.2.376 1.926h-.75zM5.593 8.62v11.896h.75V8.62h-.75zm0 11.896c0 5.536 2.767 10.632 7.402 13.63l.408-.63a15.419 15.419 0 0 1-7.06-13h-.75zm7.404 13.631a.175.175 0 0 1-.057-.063.178.178 0 0 1-.023-.084h.75a.564.564 0 0 0-.265-.484l-.405.631zm-.08-.147a.18.18 0 0 1 .023-.084.173.173 0 0 1 .055-.062l.408.63a.565.565 0 0 0 .264-.484h-.75zm.079-.146c-4.636 2.998-7.403 8.095-7.403 13.63h.75c0-5.282 2.64-10.14 7.06-13l-.408-.63zm-7.403 13.63V59.34h.75V47.484h-.75zm.374 11.481c-3.5.012-6.342 2.879-6.342 6.398h.75c0-3.11 2.51-5.638 5.595-5.648l-.003-.75zm-6.342 6.398v1.309h.75v-1.309h-.75zm0 1.309c0 .939.757 1.703 1.695 1.703v-.75a.949.949 0 0 1-.945-.953h-.75zm1.695 1.703h46.36v-.75H1.32v.75zm46.36 0a1.7 1.7 0 0 0 1.695-1.703h-.75a.95.95 0 0 1-.945.953v.75zm1.695-1.703v-1.31h-.75v1.31h.75zm0-1.31c0-3.503-2.816-6.36-6.297-6.396l-.008.75c3.066.032 5.555 2.55 5.555 5.646h.75zm-5.926-6.02V47.483h-.75V59.34h.75zm0-11.858c0-5.536-2.767-10.632-7.402-13.63l-.407.629c4.42 2.86 7.059 7.719 7.059 13h.75zm-7.401-13.63c.014.01.037.03.055.062a.18.18 0 0 1 .023.084h-.75c0 .2.097.375.263.483l.408-.63zm.078.146a.18.18 0 0 1-.023.084.173.173 0 0 1-.055.062l-.41-.628a.566.566 0 0 0-.262.482h.75zm6.887 28.371c1.63 0 2.963 1.332 2.972 2.976l.75-.005c-.012-2.051-1.675-3.72-3.722-3.72v.75zm3.347 2.598H2.64v.75h43.72v-.75zm-43.345.378c.01-1.644 1.341-2.976 2.972-2.976v-.75c-2.048 0-3.71 1.67-3.722 3.721l.75.005zm2.972-2.976h1.299v-.75h-1.3v.75zm1.257-.002h.004l.083-.745h-.004l-.083.745zm.083.001h.004l-.075-.747h-.004l.075.747zm-.033.001h35.72v-.75H7.293v.75zm5.86-2.74l11.602-9.422-.472-.582L12.68 59.05l.472.582zm11.13-9.422l11.575 9.422.474-.582-11.576-9.422-.474.582zm11.812 8.756H12.917v.75h23.179v-.75zm-1.884-22.248a12.77 12.77 0 0 1 5.846 10.767h.75a13.52 13.52 0 0 0-6.189-11.396l-.407.63zm5.846 10.767v11.061h.75v-11.06h-.75zm.598 10.76l-15.324-11.3-.445.604 15.324 11.3.445-.605zM25.278 46.91a1.684 1.684 0 0 0-1.512 0l.337.67a.934.934 0 0 1 .838 0l.337-.67zm-1.566.033L8.387 58.224l.445.604 15.325-11.28-.445-.604zM8.984 58.526V47.484h-.75v11.042h.75zm0-11.042a12.77 12.77 0 0 1 5.847-10.767l-.407-.63a13.52 13.52 0 0 0-6.19 11.397h.75zm5.847-10.767a3.223 3.223 0 0 0 1.476-2.716h-.75c0 .848-.423 1.628-1.133 2.087l.407.63zm1.476-2.716c0-1.103-.551-2.12-1.476-2.718l-.407.63A2.475 2.475 0 0 1 15.557 34h.75zm-1.476-2.718a12.77 12.77 0 0 1-5.847-10.767h-.75a13.52 13.52 0 0 0 6.19 11.396l.407-.63zM8.984 20.516V7.562h-.75v12.954h.75zM8.98 7.627a1.88 1.88 0 0 0 .026-.295h-.75c0 .06-.004.105-.015.165l.739.13zm.026-.295c0-.94-.757-1.703-1.695-1.703v.75c.52 0 .945.424.945.953h.75zM7.31 5.629h-.616v.75h.616v-.75zm-.616 0c-1.8 0-3.307-1.311-3.619-3.04l-.738.133C2.711 4.798 4.521 6.38 6.694 6.38v-.75zM2.706 3.031h43.59v-.75H2.705v.75zm43.22-.442c-.312 1.729-1.818 3.04-3.619 3.04v.75c2.174 0 3.983-1.581 4.357-3.656l-.738-.134zm-3.619 3.04H19.515v.75h22.792v-.75zm-22.792 0c-.94 0-1.695.764-1.695 1.703h.75c0-.529.424-.953.945-.953v-.75zM17.82 7.332c0 .938.756 1.703 1.695 1.703v-.75a.949.949 0 0 1-.945-.953h-.75zm1.695 1.703h20.918v-.75H19.515v.75zm20.543-.375v11.857h.75V8.66h-.75zm0 11.857c0 4.374-2.185 8.397-5.846 10.766l.407.63a13.519 13.519 0 0 0 6.19-11.396h-.75zm-5.846 10.765a3.225 3.225 0 0 0-1.477 2.719h.75c0-.85.424-1.63 1.134-2.089l-.407-.63zm-1.477 2.719c0 1.102.552 2.119 1.477 2.717l.407-.63A2.473 2.473 0 0 1 33.485 34h-.75z"/><path id="l" d="M23.56 0h-7.945c-1.546 0-2.5.607-3.04 1.14C11.827.47 10.75 0 9.264 0H1.32C.59 0 0 .595 0 1.328c0 .734.591 1.328 1.32 1.328h7.945c1.817 0 2.053 1.124 2.07 1.612v.016a1.324 1.324 0 0 0 1.32 1.295h.017a1.325 1.325 0 0 0 1.304-1.328v-.027c.003-.591.221-1.568 1.639-1.568h7.945c.73 0 1.32-.594 1.32-1.328C24.88.596 24.29 0 23.56 0z"/><path id="m" d="M12.575 1.14l-.251.28.263.235.251-.248-.263-.267zm-1.24 3.128h.376v-.013l-.376.013zm0 .016h-.375v.01l.375-.01zm1.337 1.295v.375h.004l-.004-.375zm1.303-1.355l-.375-.002v.02l.375-.018zM24.88 1.328h-.375.375zM23.56-.375h-7.945v.75h7.946v-.75zm-7.945 0c-1.656 0-2.702.654-3.304 1.248l.527.534C13.318.934 14.18.375 15.615.375v-.75zM12.825.861c-.821-.737-1.99-1.236-3.56-1.236v.75c1.4 0 2.386.44 3.059 1.044l.501-.558zM9.265-.375H1.32v.75h7.945v-.75zm-7.945 0A1.7 1.7 0 0 0-.375 1.328h.75A.95.95 0 0 1 1.32.375v-.75zM-.375 1.328c0 .94.757 1.703 1.695 1.703v-.75a.949.949 0 0 1-.945-.953h-.75zM1.32 3.031h7.945v-.75H1.32v.75zm7.945 0c.826 0 1.223.252 1.424.49.233.256.265.538.272.76l.75-.026a2.184 2.184 0 0 0-.45-1.218c-.375-.446-1.005-.756-1.996-.756v.75zm1.695 1.237v.016h.75v-.016h-.75zm0 .025a1.7 1.7 0 0 0 1.695 1.661v-.75a.95.95 0 0 1-.945-.93l-.75.02zm1.695 1.661h.017v-.75h-.017v.75zm.021 0a1.7 1.7 0 0 0 1.675-1.703h-.75a.95.95 0 0 1-.934.953l.01.75zm1.675-1.703l-.001-.045-.75.036c0-.002 0-.002 0 0v.01h.75zm0-.025c0-.261.051-.56.216-.786.15-.204.435-.409 1.048-.409v-.75c-.805 0-1.337.284-1.653.716-.3.41-.36.895-.362 1.225l.75.004zm1.264-1.195h7.945v-.75h-7.945v.75zm7.945 0a1.7 1.7 0 0 0 1.695-1.703h-.75a.95.95 0 0 1-.945.953v.75zm1.695-1.702a1.7 1.7 0 0 0-1.694-1.704v.75a.95.95 0 0 1 .944.953h.75z"/></defs></svg>