<svg width="63" height="76" viewBox="0 0 63 76" xmlns="http://www.w3.org/2000/svg" xmlns:xlink="http://www.w3.org/1999/xlink"><title>3</title><desc>Created using Figma</desc><use xlink:href="#a" transform="translate(9.78 16.725)" fill="#EB3441"/><g fill="#002543"><g transform="translate(1 1)"><use xlink:href="#b"/><use xlink:href="#c"/></g><g transform="translate(9.962 15.148)"><use xlink:href="#d"/><use xlink:href="#e"/></g><g transform="translate(9.963 15.145)"><use xlink:href="#f"/><use xlink:href="#g"/></g><g transform="translate(9.963 21.038)"><use xlink:href="#h"/><use xlink:href="#i"/></g><g transform="translate(9.963 26.93)"><use xlink:href="#j"/><use xlink:href="#k"/></g></g><defs><path id="a" d="M0 38.388V24.05l6.008-5.088 4.62 5.088 12.478-12.025 3.697 3.237L44.363 0v37.462L0 38.387z"/><path id="b" d="M57.053 5.753H37.687C37.004 2.474 34.04 0 30.5 0c-3.541 0-6.504 2.474-7.188 5.753H3.946C1.77 5.753 0 7.49 0 9.625v41.13c0 2.133 1.77 3.87 3.946 3.87h18.398l-5.976 17.47a1.44 1.44 0 0 0 .928 1.83c.156.05.314.075.47.075.615 0 1.189-.382 1.396-.986l6.29-18.389h10.096l6.29 18.39c.207.603.78.985 1.396.985.156 0 .313-.025.469-.076a1.439 1.439 0 0 0 .928-1.829l-5.975-17.47h18.397c2.176 0 3.947-1.737 3.947-3.87V9.624c0-2.134-1.77-3.872-3.947-3.872zM30.5 2.891c1.905 0 3.529 1.196 4.136 2.862h-8.272C26.97 4.087 28.595 2.89 30.5 2.89zm27.553 47.864c0 .54-.448.98-1 .98h-3.848V31.131c0-.799-.659-1.446-1.473-1.446-.813 0-1.473.647-1.473 1.446v20.604h-4.53V35.552c0-.798-.66-1.445-1.473-1.445-.814 0-1.473.647-1.473 1.445v16.183h-4.137V40.28c0-.798-.659-1.445-1.473-1.445-.814 0-1.473.647-1.473 1.445v11.455h-3.728V36.607c0-.8-.66-1.446-1.473-1.446-.813 0-1.472.647-1.472 1.446v15.128H24.75v-7.952c0-.799-.66-1.446-1.473-1.446-.814 0-1.473.647-1.473 1.446v7.952h-3.42v-7.37c0-.798-.66-1.445-1.474-1.445-.813 0-1.473.647-1.473 1.446v7.37h-3.944V46.05c0-.799-.66-1.445-1.473-1.445-.813 0-1.473.646-1.473 1.445v5.685H3.946c-.552 0-1-.44-1-.98V9.625a.991.991 0 0 1 1-.981h53.107c.551 0 1 .44 1 .981v41.13z"/><path id="c" d="M37.687 5.753l-.245.051.041.2h.204v-.25zm-14.375 0v.25h.203l.042-.2-.245-.05zm-.968 48.872l.236.081.114-.33h-.35v.25zm-5.976 17.47l-.236-.081.236.081zm.928 1.83l.079-.238-.079.237zm1.866-.91l.236.08-.236-.08zm6.29-18.39v-.25h-.179l-.058.17.237.08zm10.096 0l.237-.08-.058-.17h-.179v.25zm6.29 18.39l-.237.08.237-.08zm1.865.91l-.078-.238.078.237zm.928-1.83l-.236.08.236-.08zm-5.975-17.47v-.25h-.35l.114.331.236-.08zM61 9.625h.25H61zM34.636 5.753v.25h.357l-.122-.336-.235.086zm-8.272 0l-.235-.086-.122.336h.357v-.25zm26.841 45.982h-.25v.25h.25v-.25zm-2.946 0v.25h.25v-.25h-.25zm-4.53 0h-.25v.25h.25v-.25zm-2.946 0v.25h.25v-.25h-.25zm-4.137 0h-.25v.25h.25v-.25zm-2.946 0v.25h.25v-.25h-.25zm-3.728 0h-.25v.25h.25v-.25zm-2.945 0v.25h.25v-.25h-.25zm-4.277 0h-.25v.25h.25v-.25zm-2.946 0v.25h.25v-.25h-.25zm-3.42 0h-.25v.25h.25v-.25zm-2.947 0v.25h.25v-.25h-.25zm-3.944 0h-.25v.25h.25v-.25zm-2.946 0v.25h.25v-.25h-.25zM57.053 5.503H37.687v.5h19.366v-.5zm-19.122.2C37.225 2.306 34.158-.25 30.5-.25v.5c3.423 0 6.284 2.392 6.942 5.554l.49-.102zM30.5-.25c-3.659 0-6.725 2.557-7.433 5.952l.49.102C24.217 2.642 27.077.25 30.5.25v-.5zm-7.188 5.753H3.946v.5h19.366v-.5zm-19.366 0c-2.31 0-4.196 1.845-4.196 4.122h.5c0-1.992 1.654-3.622 3.696-3.622v-.5zM-.25 9.625v41.13h.5V9.624h-.5zm0 41.13c0 2.276 1.887 4.12 4.196 4.12v-.5c-2.042 0-3.696-1.63-3.696-3.62h-.5zm4.196 4.12h18.398v-.5H3.946v.5zm18.161-.33l-5.976 17.469.474.162 5.975-17.47-.473-.162zm-5.976 17.47a1.69 1.69 0 0 0 1.087 2.147l.156-.475a1.19 1.19 0 0 1-.77-1.511l-.473-.162zm1.087 2.147c.175.057.373.087.548.088v-.5a1.15 1.15 0 0 1-.391-.063l-.157.475zm.548.088c.716 0 1.389-.445 1.632-1.154l-.473-.163c-.17.498-.646.817-1.16.817v.5zm1.632-1.155l6.29-18.389-.473-.162-6.29 18.39.473.161zm6.054-18.22h10.096v-.5H25.452v.5zm9.86-.169l6.29 18.39.472-.163-6.29-18.389-.472.162zm6.29 18.39a1.72 1.72 0 0 0 1.632 1.154v-.5c-.514 0-.99-.32-1.16-.817l-.473.162zm1.632 1.154c.175 0 .372-.031.547-.088l-.156-.475a1.144 1.144 0 0 1-.39.063v.5zm.547-.088a1.688 1.688 0 0 0 1.087-2.148l-.474.162c.213.62-.126 1.3-.77 1.51l.157.476zm1.087-2.148l-5.975-17.47-.473.162 5.974 17.47.474-.162zm-6.212-17.139h18.397v-.5H38.656v.5zm18.397 0c2.31 0 4.197-1.844 4.197-4.12h-.5c0 1.99-1.654 3.62-3.697 3.62v.5zm4.197-4.12V9.624h-.5v41.13h.5zm0-41.13c-.001-2.277-1.887-4.122-4.197-4.122v.5c2.043 0 3.696 1.63 3.697 3.622h.5zM30.5 3.141c1.798 0 3.33 1.129 3.901 2.697l.47-.171A4.645 4.645 0 0 0 30.5 2.641v.5zm4.136 2.362h-8.272v.5h8.272v-.5zm-8.037.335c.57-1.568 2.102-2.697 3.901-2.697v-.5c-2.01 0-3.73 1.262-4.371 3.026l.47.171zm31.204 44.917c0 .397-.332.73-.75.73v.5c.686 0 1.25-.548 1.25-1.23h-.5zm-.75.73h-3.848v.5h3.848v-.5zm-3.598.25V31.131h-.5v20.604h.5zm0-20.604c0-.941-.775-1.696-1.723-1.696v.5c.68 0 1.223.54 1.223 1.196h.5zm-1.723-1.696c-.946 0-1.723.755-1.723 1.696h.5a1.21 1.21 0 0 1 1.223-1.196v-.5zm-1.723 1.696v20.604h.5V31.131h-.5zm.25 20.354h-4.53v.5h4.53v-.5zm-4.28.25V35.552h-.5v16.183h.5zm0-16.183c0-.94-.776-1.695-1.723-1.695v.5c.68 0 1.223.54 1.223 1.195h.5zm-1.723-1.695c-.947 0-1.723.755-1.723 1.695h.5a1.21 1.21 0 0 1 1.223-1.195v-.5zm-1.723 1.695v16.183h.5V35.552h-.5zm.25 15.933h-4.137v.5h4.137v-.5zm-3.887.25V40.28h-.5v11.455h.5zm0-11.455c0-.94-.775-1.695-1.723-1.695v.5c.68 0 1.223.54 1.223 1.195h.5zm-1.723-1.695c-.948 0-1.723.755-1.723 1.695h.5c0-.656.542-1.195 1.223-1.195v-.5zM35.45 40.28v11.455h.5V40.28h-.5zm.25 11.205h-3.728v.5H35.7v-.5zm-3.478.25V36.607h-.5v15.128h.5zm0-15.128c0-.942-.776-1.696-1.723-1.696v.5c.68 0 1.224.54 1.224 1.196h.5zM30.5 34.91c-.947 0-1.722.754-1.722 1.696h.5c0-.657.542-1.196 1.222-1.196v-.5zm-1.722 1.696v15.128h.5V36.607h-.5zm.25 14.878H24.75v.5h4.277v-.5zm-4.027.25v-7.952h-.5v7.952h.5zm0-7.952c0-.941-.776-1.696-1.723-1.696v.5c.68 0 1.223.54 1.223 1.196h.5zm-1.723-1.696c-.948 0-1.723.755-1.723 1.696h.5a1.21 1.21 0 0 1 1.223-1.196v-.5zm-1.723 1.696v7.952h.5v-7.952h-.5zm.25 7.702h-3.42v.5h3.42v-.5zm-3.17.25v-7.37h-.5v7.37h.5zm0-7.37c0-.94-.776-1.695-1.724-1.695v.5c.68 0 1.223.54 1.223 1.196h.5zM16.91 42.67c-.947 0-1.723.755-1.723 1.696h.5a1.21 1.21 0 0 1 1.223-1.196v-.5zm-1.723 1.696v7.37h.5v-7.37h-.5zm.25 7.12h-3.944v.5h3.944v-.5zm-3.694.25V46.05h-.5v5.685h.5zm0-5.686c0-.941-.776-1.695-1.723-1.695v.5c.68 0 1.223.539 1.223 1.195h.5zm-1.723-1.695c-.947 0-1.723.754-1.723 1.695h.5c0-.656.543-1.195 1.223-1.195v-.5zM8.297 46.05v5.685h.5V46.05h-.5zm.25 5.435H3.946v.5h4.601v-.5zm-4.601 0a.741.741 0 0 1-.75-.73h-.5c0 .682.564 1.23 1.25 1.23v-.5zm-.75-.73V9.625h-.5v41.13h.5zm0-41.13c0-.399.332-.731.75-.731v-.5c-.686 0-1.25.548-1.25 1.231h.5zm.75-.731h53.107v-.5H3.946v.5zm53.107 0c.418 0 .75.332.75.731h.5c0-.683-.565-1.231-1.25-1.231v.5zm.75.731v41.13h.5V9.625h-.5z"/><path id="d" d="M44.237 1.3c-.002-.019-.006-.038-.01-.058-.004-.027-.006-.054-.012-.081-.004-.023-.01-.045-.016-.068-.006-.023-.011-.046-.019-.07L44.157.96l-.025-.07c-.009-.02-.02-.039-.028-.058l-.034-.07a.703.703 0 0 0-.033-.053 1.647 1.647 0 0 0-.041-.068c-.014-.02-.029-.037-.043-.056a1.274 1.274 0 0 0-.128-.148l-.013-.015-.014-.012a1.2 1.2 0 0 0-.093-.083l-.056-.04a.834.834 0 0 0-.06-.044c-.02-.014-.043-.026-.065-.039L43.465.17a1.063 1.063 0 0 0-.066-.03.544.544 0 0 0-.065-.03c-.021-.01-.042-.015-.063-.023a1.047 1.047 0 0 0-.073-.025l-.062-.016-.078-.019a.914.914 0 0 0-.069-.01A1.687 1.687 0 0 0 42.797 0h-6.389c-.814 0-1.473.647-1.473 1.445 0 .799.66 1.446 1.473 1.446h2.806L26.985 14.89l-3.21-3.15a1.49 1.49 0 0 0-2.083 0l-10.63 10.428-3.172-3.113a1.494 1.494 0 0 0-2.084 0L.431 24.329a1.428 1.428 0 0 0 0 2.044c.288.282.665.423 1.041.423.378 0 .755-.14 1.043-.423l4.332-4.252 3.174 3.114a1.493 1.493 0 0 0 2.082 0l10.63-10.43 3.21 3.15a1.49 1.49 0 0 0 2.084 0l13.27-13.021v2.753c0 .799.66 1.446 1.473 1.446.814 0 1.473-.647 1.473-1.446V1.445a1.23 1.23 0 0 0-.006-.144z"/><path id="e" d="M44.237 1.3l.25-.022-.002-.008-.248.03zm-.01-.058l-.246.04.247-.04zm-.012-.081l-.245.05v.001l.245-.051zm-.016-.068l.242-.061v-.003l-.242.064zm-.019-.07l-.24.073.002.004.238-.076zM44.157.96l.235-.087-.235.087zm-.025-.07l-.23.1.001.002.229-.102zm-.028-.058l.226-.107V.724l-.226.108zm-.034-.07l.224-.112-.005-.009-.22.12zm-.033-.053l-.216.125.004.007.004.007.208-.14zM43.996.64l.21-.136L44.201.5l-.206.141zm-.087-.113l-.191.16.191-.16zm-.083-.09L44 .257 43.991.25l-.166.186zm-.014-.016l-.184.17.01.009.174-.179zM43.798.41l-.175.178.01.01.01.008.155-.196zm-.093-.083l.157-.195-.006-.005-.151.2zm-.056-.04l-.152.198.007.005.145-.203zm-.06-.044l-.145.205.01.007.135-.212zm-.065-.039l.128-.215-.004-.002-.124.217zM43.465.17l.116-.221-.002-.001-.114.222zm-.066-.03l-.11.224.012.005.099-.23zm-.065-.03l.092-.233-.092.232zm-.063-.023l-.09.234.008.002.082-.236zm-.073-.025l.072-.24h-.003l-.07.24zm-.062-.016l.062-.242-.007-.002-.055.244zm-.078-.019l.054-.244-.01-.002-.044.246zm-.069-.01l-.045.246.01.002.01.001.025-.248zm-.074-.01l-.023.25h.01l.013-.25zm-.118-.006l.005-.25h-.005V0zm-3.583 2.89l.175.178.437-.428h-.612v.25zM26.985 14.89l-.175.178.175.172.175-.172-.175-.178zm-3.21-3.15l.175-.18-.175.18zm-2.083 0l.175.178-.175-.179zm-10.63 10.428l-.175.179.175.171.175-.171-.175-.179zM7.89 19.055l.175-.179-.175.179zm-2.084 0l-.175-.179.175.179zM.431 24.329l-.175-.178.175.178zm0 2.044l-.175.178.175-.178zm2.084 0l.175.179-.175-.179zm4.332-4.252l.175-.178-.175-.172-.175.172.175.178zm3.174 3.114l-.175.178.175-.178zm2.082 0l.175.179-.175-.179zm10.63-10.43l.175-.178-.175-.172-.175.172.175.178zm3.21 3.15l-.175.179.176-.179zm2.084 0l.175.179-.175-.179zm13.27-13.021h.25v-.596l-.425.417.175.179zm2.946-3.49l-.25-.006v.007h.25zm.242-.174c-.003-.028-.008-.052-.01-.068l-.494.08.008.049.496-.06zm-.01-.068c-.003-.017-.007-.05-.015-.093l-.49.103c.004.012.005.034.01.07l.495-.08zm-.015-.091c-.006-.031-.014-.06-.019-.08l-.484.124.013.056.49-.1zm-.02-.082a.994.994 0 0 0-.022-.082l-.476.153.015.057.484-.128zm-.02-.078c-.01-.032-.022-.06-.029-.079l-.469.173c.01.025.016.04.019.051l.478-.145zM44.39.87c-.006-.015-.015-.045-.031-.082l-.457.203c.004.007.008.024.02.054L44.39.87zm-.03-.08c-.012-.028-.024-.051-.031-.066l-.452.214c.01.023.02.04.024.051l.459-.2zm-.032-.067C44.32.7 44.307.676 44.293.65l-.447.223.032.067.451-.216zM44.29.64a1.054 1.054 0 0 0-.045-.072l-.415.279.022.034.438-.24zm-.036-.058a2.016 2.016 0 0 0-.048-.078l-.419.273.035.056.432-.251zM44.202.5l-.048-.065-.401.3.037.048.412-.283zm-.048-.065C44.14.417 44.122.392 44.1.367l-.383.322c.01.011.02.025.035.045l.4-.299zM44.1.367a1.623 1.623 0 0 0-.1-.108l-.35.357a.94.94 0 0 1 .067.072L44.1.367zm-.109-.116a.199.199 0 0 1 .016.016l.005.005L44.01.27l-.005-.006a.298.298 0 0 0-.019-.02l-.35.357a.201.201 0 0 1-.012-.014c-.001-.001-.003-.003 0 0 .002.003.015.02.034.037l.333-.373zm.005.002a.321.321 0 0 0-.045-.04l-.309.393.005.004-.001-.001-.007-.006a.203.203 0 0 1-.012-.012l.369-.338zm-.024-.022a1.679 1.679 0 0 0-.11-.098l-.315.388c.027.022.05.042.075.067l.35-.357zm-.117-.104l-.062-.044-.29.407.05.037.302-.4zM43.8.088a1.196 1.196 0 0 0-.079-.056l-.267.423c.013.007.024.016.042.03L43.8.088zM43.733.04c-.034-.023-.065-.04-.08-.05l-.257.43.048.028.289-.408zm-.084-.052L43.58-.05l-.232.443.05.029.25-.434zm-.07-.04a1.382 1.382 0 0 0-.08-.037L43.3.37a.71.71 0 0 1 .05.023l.228-.445zm-.07-.032c-.02-.01-.05-.025-.083-.038l-.184.465c.011.004.024.01.047.022l.22-.449zm-.084-.039l-.072-.025-.165.472c.028.01.044.014.055.019l.182-.466zm-.064-.022a1.41 1.41 0 0 0-.091-.032l-.145.479c.017.005.033.01.056.02l.18-.467zm-.094-.033l-.069-.017-.124.484c.027.007.044.01.054.014l.14-.48zm-.076-.019l-.079-.019-.109.488c.02.005.045.012.078.019l.11-.488zm-.089-.02a1.28 1.28 0 0 0-.088-.013l-.05.497a.562.562 0 0 1 .05.007l.088-.492zm-.067-.01a.954.954 0 0 0-.105-.014l-.03.498c.01 0 .019.002.042.006l.092-.491zm-.096-.014a2.05 2.05 0 0 0-.137-.007l-.011.5c.037 0 .067.002.101.005l.047-.498zm-.142-.007c.003 0 .006 0 0 0l-.026-.001v.5c-.004 0-.006 0 0 0h.026v-.5zM42.77-.25h-6.363v.5h6.363v-.5zm-6.363 0c-.947 0-1.723.755-1.723 1.695h.5A1.21 1.21 0 0 1 36.408.25v-.5zm-1.723 1.695c0 .941.776 1.696 1.723 1.696v-.5a1.21 1.21 0 0 1-1.223-1.196h-.5zm1.723 1.696h2.806v-.5h-2.806v.5zm2.631-.429l-12.229 12 .35.356L39.39 3.07l-.35-.357zm-11.879 12l-3.21-3.151-.35.357 3.21 3.15.35-.357zm-3.21-3.151a1.74 1.74 0 0 0-1.217-.495v.5c.326 0 .637.127.867.352l.35-.357zm-1.217-.495c-.456 0-.893.178-1.216.495l.35.357c.229-.225.54-.352.866-.352v-.5zm-1.216.495L10.886 21.99l.35.357 10.63-10.43-.35-.356zM11.237 21.99l-3.172-3.114-.35.357 3.172 3.114.35-.357zm-3.173-3.114a1.745 1.745 0 0 0-2.433 0l.35.357a1.244 1.244 0 0 1 1.734 0l.35-.357zm-2.433 0L.256 24.151l.35.357 5.375-5.275-.35-.357zM.256 24.151a1.678 1.678 0 0 0 0 2.4l.35-.356a1.178 1.178 0 0 1 0-1.688l-.35-.356zm0 2.4c.337.331.778.495 1.216.495v-.5c-.314 0-.627-.117-.866-.351l-.35.357zm1.216.495c.44 0 .881-.164 1.218-.494l-.35-.357a1.233 1.233 0 0 1-.868.351v.5zm1.218-.494l4.333-4.253-.35-.356-4.333 4.252.35.357zm3.982-4.253l3.174 3.114.35-.356-3.174-3.114-.35.356zm3.174 3.115c.672.659 1.76.659 2.432 0l-.35-.357a1.244 1.244 0 0 1-1.732 0l-.35.357zm2.432 0l10.63-10.43-.35-.357-10.63 10.43.35.357zm10.28-10.43l3.21 3.15.35-.357-3.21-3.15-.35.357zm3.21 3.15a1.74 1.74 0 0 0 1.217.494v-.5a1.24 1.24 0 0 1-.866-.351l-.35.357zm1.217.494c.456 0 .894-.177 1.217-.494l-.35-.357a1.24 1.24 0 0 1-.867.351v.5zm1.217-.494l13.27-13.022-.35-.357-13.27 13.022.35.357zm12.845-13.2v2.753h.5V4.934h-.5zm0 2.753c0 .941.777 1.696 1.723 1.696v-.5a1.21 1.21 0 0 1-1.223-1.196h-.5zm1.723 1.696c.948 0 1.723-.755 1.723-1.696h-.5a1.21 1.21 0 0 1-1.223 1.196v.5zm1.723-1.696V1.445h-.5v6.242h.5zm0-6.235a1.57 1.57 0 0 0-.007-.174l-.498.045a.87.87 0 0 1 .005.115l.5.014z"/><path id="f" d="M2.946 1.445c0 .8-.66 1.446-1.473 1.446C.659 2.89 0 2.244 0 1.445 0 .647.659 0 1.473 0c.813 0 1.473.647 1.473 1.445z"/><path id="g" d="M1.473 0v.25V0zm1.223 1.445a1.21 1.21 0 0 1-1.223 1.196v.5c.947 0 1.723-.754 1.723-1.696h-.5zM1.473 2.641C.793 2.64.25 2.1.25 1.445h-.5c0 .942.775 1.696 1.723 1.696v-.5zM.25 1.445A1.21 1.21 0 0 1 1.473.25v-.5C.525-.25-.25.504-.25 1.445h.5zM1.473.25c.68 0 1.223.54 1.223 1.195h.5c0-.94-.777-1.695-1.723-1.695v.5z"/><path id="h" d="M2.946 1.445c0 .798-.66 1.446-1.473 1.446C.659 2.89 0 2.243 0 1.445 0 .647.659 0 1.473 0c.813 0 1.473.647 1.473 1.445z"/><path id="i" d="M2.696 1.445a1.21 1.21 0 0 1-1.223 1.196v.5c.947 0 1.723-.755 1.723-1.696h-.5zM1.473 2.641A1.21 1.21 0 0 1 .25 1.445h-.5c0 .94.775 1.696 1.723 1.696v-.5zM.25 1.445A1.21 1.21 0 0 1 1.473.25v-.5C.525-.25-.25.504-.25 1.445h.5zM1.473.25c.68 0 1.223.54 1.223 1.195h.5c0-.941-.777-1.695-1.723-1.695v.5z"/><path id="j" d="M2.946 1.445c0 .8-.66 1.446-1.473 1.446C.659 2.89 0 2.244 0 1.445 0 .647.659 0 1.473 0c.813 0 1.473.647 1.473 1.445z"/><path id="k" d="M2.696 1.445a1.21 1.21 0 0 1-1.223 1.196v.5c.947 0 1.723-.754 1.723-1.696h-.5zM1.473 2.641C.793 2.64.25 2.1.25 1.445h-.5c0 .942.775 1.696 1.723 1.696v-.5zM.25 1.445A1.21 1.21 0 0 1 1.473.25v-.5C.525-.25-.25.504-.25 1.445h.5zM1.473.25c.68 0 1.223.54 1.223 1.195h.5c0-.941-.777-1.695-1.723-1.695v.5z"/></defs></svg>