<svg width="77" height="57" viewBox="0 0 77 57" xmlns="http://www.w3.org/2000/svg" xmlns:xlink="http://www.w3.org/1999/xlink"><title>004-laptop</title><desc>Created using Figma</desc><use xlink:href="#a" transform="translate(13.5 20)" fill="#EB3441"/><use xlink:href="#b" transform="translate(20.372 24.926)" fill="#002543"/><use xlink:href="#c" transform="translate(28.96 29.889)" fill="#002543"/><use xlink:href="#d" transform="translate(37.516 20.659)" fill="#002543"/><use xlink:href="#e" transform="translate(45.902 24.332)" fill="#002543"/><use xlink:href="#f" transform="translate(54.191 13.817)" fill="#002543"/><use xlink:href="#g" fill="#002543"/><use xlink:href="#h" transform="translate(11.913 6.351)" fill="#002543"/><use xlink:href="#i" transform="translate(68.576 39.111)" fill="#002543"/><defs><path id="a" d="M0 18.5h8.5l29.5 2 13-2L42.5 0 34 12l-9-4.5-8 11L8.5 12 0 18.5z"/><path id="b" d="M3.008 1.489c0 .822-.674 1.489-1.504 1.489S0 2.31 0 1.489C0 .667.673 0 1.504 0c.83 0 1.504.667 1.504 1.489z"/><path id="c" d="M3.008 1.489c0 .822-.674 1.489-1.504 1.489S0 2.31 0 1.489C0 .667.673 0 1.504 0c.83 0 1.504.667 1.504 1.489z"/><path id="d" d="M3.008 1.489c0 .822-.674 1.489-1.504 1.489S0 2.31 0 1.489C0 .666.673 0 1.504 0c.83 0 1.504.666 1.504 1.489z"/><path id="e" d="M3.008 1.489c0 .822-.674 1.489-1.504 1.489S0 2.31 0 1.489C0 .667.673 0 1.504 0c.83 0 1.504.667 1.504 1.489z"/><path id="f" d="M3.008 1.489c0 .822-.673 1.489-1.504 1.489C.674 2.978 0 2.31 0 1.489 0 .667.673 0 1.504 0s1.504.667 1.504 1.489z"/><path id="g" d="M75.495 44.688H45.04c-.83 0-1.504.666-1.504 1.489 0 1.385-1.138 2.511-2.537 2.511h-5.037c-1.399 0-2.537-1.126-2.537-2.511 0-.823-.673-1.49-1.504-1.49H8.246V6.118c0-1.732 1.423-3.14 3.17-3.14h54.167c1.747 0 3.17 1.41 3.17 3.14v28.665c0 .822.673 1.489 1.504 1.489.83 0 1.503-.667 1.503-1.49V6.117C71.76 2.744 68.99 0 65.583 0H11.417C8.01 0 5.238 2.744 5.238 6.116v38.572H1.504c-.83 0-1.504.666-1.504 1.489v2.339C0 53.194 3.844 57 8.569 57H68.43c4.726 0 8.57-3.806 8.57-8.484v-2.34c0-.822-.674-1.488-1.505-1.488zm-1.504 3.828c0 3.035-2.494 5.506-5.56 5.506H8.568c-3.067 0-5.561-2.47-5.561-5.506v-.85h27.616a5.548 5.548 0 0 0 5.337 4h5.037a5.548 5.548 0 0 0 5.338-4h27.656v.85z"/><path id="h" d="M52.178 0H1.504C.674 0 0 .666 0 1.489v32.074c0 .822.673 1.489 1.504 1.489h50.674c.83 0 1.504-.667 1.504-1.49V1.49c0-.824-.672-1.49-1.504-1.49zm-1.504 32.074h-5.387V14.229c0-.822-.674-1.488-1.504-1.488s-1.504.666-1.504 1.488v17.845h-5.447v-6.626c0-.822-.674-1.489-1.504-1.489s-1.504.667-1.504 1.489v6.626h-5.447V22.009c0-.823-.674-1.49-1.504-1.49s-1.504.667-1.504 1.49v10.065h-5.447v-1.438c0-.822-.673-1.489-1.504-1.489-.83 0-1.503.667-1.503 1.49v1.437h-5.448v-5.905c0-.822-.673-1.489-1.504-1.489-.83 0-1.504.667-1.504 1.49v5.904H3.008V2.978h47.666v29.096z"/><path id="i" d="M3.008 1.489c0 .822-.674 1.489-1.504 1.489A1.496 1.496 0 0 1 0 1.489C0 .667.673 0 1.504 0c.83 0 1.504.667 1.504 1.489z"/></defs></svg>