<svg width="68" height="62" viewBox="0 0 68 62" xmlns="http://www.w3.org/2000/svg" xmlns:xlink="http://www.w3.org/1999/xlink"><title>5</title><desc>Created using Figma</desc><use xlink:href="#a" transform="translate(47.247 46.057)" fill="#EB3441"/><use xlink:href="#b" transform="translate(55.637 51.149)" fill="#002543"/><use xlink:href="#c" transform="translate(46.363 30.999)" fill="#002543"/><use xlink:href="#d" fill="#002543"/><defs><path id="a" d="M1.325 13.729L0 0h19.429l-1.767 13.729H1.325z"/><path id="b" d="M1.546 3.1c.853 0 1.545-.694 1.545-1.55C3.091.694 2.4 0 1.546 0S0 .694 0 1.55C0 2.406.692 3.1 1.546 3.1z"/><path id="c" d="M20.092 12.4h-1.546V7.75C18.546 3.477 15.08 0 10.82 0S3.09 3.476 3.09 7.75v4.65H1.546C.69 12.4 0 13.093 0 13.95v12.4C0 28.914 2.08 31 4.637 31H17c2.556 0 4.636-2.086 4.636-4.65v-12.4c0-.857-.69-1.55-1.545-1.55zM6.182 7.75c0-2.563 2.081-4.65 4.637-4.65 2.556 0 4.636 2.087 4.636 4.65v4.65H6.183V7.75zm12.365 18.6c0 .856-.692 1.55-1.546 1.55H4.637a1.549 1.549 0 0 1-1.545-1.55V15.5h15.454v10.85z"/><path id="d" d="M61.434 26.104C59.044 10.984 46.212.006 30.92.002L30.909 0C13.867 0 0 13.906 0 31c0 17.047 13.792 30.916 30.773 30.992.045 0 .09.008.136.008.011 0 .022-.003.034-.003a30.79 30.79 0 0 0 9.727-1.576 1.553 1.553 0 0 0 .98-1.961c-.255-.766-1.046-1.172-1.814-.998a23.088 23.088 0 0 0 2.862-3.992 1.55 1.55 0 0 0-.572-2.114 1.541 1.541 0 0 0-2.107.573c-2.166 3.792-4.809 6.123-7.564 6.77V46.5h9.272c.855 0 1.546-.692 1.546-1.55 0-.857-.69-1.55-1.546-1.55h-9.272V32.55h13.91c.854 0 1.545-.693 1.545-1.55v-3.1c0-.016-.008-.028-.009-.044 0-.014.006-.026.006-.04a52.228 52.228 0 0 0-1.326-9.217h9.26a27.989 27.989 0 0 1 2.542 7.99 1.548 1.548 0 0 0 1.767 1.287 1.547 1.547 0 0 0 1.284-1.773zM21.876 4.639c-2.384 2.683-4.358 6.404-5.743 10.86h-3.77c-.853 0-1.545.693-1.545 1.55 0 .858.691 1.55 1.546 1.55h2.92c-.778 3.335-1.232 6.993-1.333 10.85H3.17c.635-11.528 8.262-21.197 18.706-24.81zm-14.08 41.86h8.359c1.41 4.517 3.393 8.22 5.747 10.87-5.8-2-10.748-5.849-14.106-10.87zM29.364 58.7c-3.956-.95-7.665-5.477-9.96-12.2h9.96v12.2zm0-15.3H6.028A27.738 27.738 0 0 1 3.17 32.55h10.793c.058 2.171.204 4.327.503 6.42a1.545 1.545 0 0 0 1.75 1.315 1.55 1.55 0 0 0 1.311-1.755c-.278-1.947-.414-3.957-.47-5.98h7.671c.855 0 1.545-.693 1.545-1.55 0-.857-.69-1.55-1.545-1.55h-7.687c.11-3.86.63-7.531 1.477-10.85h10.846v24.8zM30.91 6.2c-.855 0-1.546.692-1.546 1.55v7.75h-9.94c2.53-7.42 6.778-12.399 11.486-12.399 4.723 0 9.022 4.94 11.573 12.4L32.456 15.5V7.75c0-.857-.691-1.55-1.545-1.55zm13.909 23.25H32.454V18.6h10.952a49.022 49.022 0 0 1 1.412 9.348v1.502zm.901-13.95c-1.412-4.464-3.404-8.216-5.806-10.899a27.594 27.594 0 0 1 14.158 10.9H45.72z"/></defs></svg>