<svg width="74" height="68" viewBox="0 0 74 68" xmlns="http://www.w3.org/2000/svg" xmlns:xlink="http://www.w3.org/1999/xlink"><title>6</title><desc>Created using Figma</desc><g transform="translate(33.283 1)" fill="#002543"><use xlink:href="#a"/><use xlink:href="#b"/></g><g transform="translate(52.797 7.656)" fill="#002543"><use xlink:href="#c"/><use xlink:href="#d"/></g><g transform="translate(45.681 3.127)" fill="#002543"><use xlink:href="#e"/><use xlink:href="#f"/></g><g transform="translate(55.743 10.703)" fill="#002543"><use xlink:href="#g"/><use xlink:href="#h"/></g><g transform="translate(37.518 1.051)" fill="#002543"><use xlink:href="#i"/><use xlink:href="#j"/></g><g transform="translate(41.678 1.763)" fill="#002543"><use xlink:href="#k"/><use xlink:href="#l"/></g><g transform="translate(49.419 5.11)" fill="#002543"><use xlink:href="#m"/><use xlink:href="#n"/></g><g transform="translate(61.713 30.451)" fill="#002543"><use xlink:href="#o"/><use xlink:href="#p"/></g><g transform="translate(59.555 38.614)" fill="#002543"><use xlink:href="#q"/><use xlink:href="#r"/></g><g transform="translate(58.161 14.167)" fill="#002543"><use xlink:href="#s"/><use xlink:href="#t"/></g><g transform="translate(61.805 26.224)" fill="#002543"><use xlink:href="#u"/><use xlink:href="#v"/></g><g transform="translate(60.009 17.97)" fill="#002543"><use xlink:href="#w"/><use xlink:href="#x"/></g><g transform="translate(61.235 22.024)" fill="#002543"><use xlink:href="#y"/><use xlink:href="#z"/></g><g transform="translate(60.959 34.615)" fill="#002543"><use xlink:href="#A"/><use xlink:href="#B"/></g><g transform="translate(9.062 21.381)" fill="#002543"><use xlink:href="#C"/><use xlink:href="#D"/></g><g transform="translate(10.386 17.358)" fill="#002543"><use xlink:href="#E"/><use xlink:href="#F"/></g><g transform="translate(9.03 33.978)" fill="#002543"><use xlink:href="#G"/><use xlink:href="#H"/></g><g transform="translate(12.254 41.778)" fill="#002543"><use xlink:href="#I"/><use xlink:href="#J"/></g><g transform="translate(8.381 29.795)" fill="#002543"><use xlink:href="#K"/><use xlink:href="#L"/></g><g transform="translate(8.392 25.561)" fill="#002543"><use xlink:href="#M"/><use xlink:href="#N"/></g><g transform="translate(29.102 1.609)" fill="#002543"><use xlink:href="#O"/><use xlink:href="#P"/></g><g transform="translate(21.288 4.759)" fill="#002543"><use xlink:href="#Q"/><use xlink:href="#R"/></g><g transform="translate(25.068 2.873)" fill="#002543"><use xlink:href="#S"/><use xlink:href="#T"/></g><g transform="translate(17.85 7.221)" fill="#002543"><use xlink:href="#U"/><use xlink:href="#V"/></g><g transform="translate(14.841 10.191)" fill="#002543"><use xlink:href="#W"/><use xlink:href="#X"/></g><g transform="translate(10.331 38.007)" fill="#002543"><use xlink:href="#Y"/><use xlink:href="#Z"/></g><g transform="translate(12.33 13.597)" fill="#002543"><use xlink:href="#aa"/><use xlink:href="#ab"/></g><use xlink:href="#ac" transform="translate(41 10)" fill="#EB3441"/><g transform="translate(1 10.493)" fill="#002543"><use xlink:href="#ad"/><use xlink:href="#ae"/></g><g transform="translate(19.281 58.256)" fill="#002543"><use xlink:href="#af"/><use xlink:href="#ag"/></g><defs><path id="a" d="M2.821 1.285A1.406 1.406 0 0 0 1.316.004a1.408 1.408 0 1 0 .228 2.807 1.406 1.406 0 0 0 1.277-1.526z"/><path id="b" d="M2.821 1.285l-.249.022.25-.022zM1.316.004l.016.25h.002l-.018-.25zM.002 1.492l-.25.015.25-.015zM1.49 2.815l-.01-.25h-.006l.016.25zm.054-.004l-.021-.25-.01.002.031.248zM3.07 1.263A1.656 1.656 0 0 0 1.297-.245l.037.498a1.156 1.156 0 0 1 1.238 1.054l.498-.044zM1.3-.246C.392-.188-.3.596-.247 1.507l.499-.03A1.158 1.158 0 0 1 1.332.254l-.032-.5zM-.247 1.507c.052.88.782 1.561 1.652 1.561v-.5a1.158 1.158 0 0 1-1.153-1.09l-.5.03zm1.652 1.561c.034 0 .07-.002.1-.004l-.031-.499a1.01 1.01 0 0 1-.069.003v.5zm.093-.003c.017 0 .057-.004.079-.006l-.065-.496-.013.001a.623.623 0 0 1-.018.001l.017.5zm.068-.005A1.656 1.656 0 0 0 3.07 1.263l-.498.044a1.156 1.156 0 0 1-1.05 1.255l.044.498z"/><path id="c" d="M2.345.36A1.406 1.406 0 0 0 .361.465a1.412 1.412 0 0 0 .103 1.99l.035.029a1.4 1.4 0 0 0 1.982-.147A1.41 1.41 0 0 0 2.345.36z"/><path id="d" d="M2.345.36l-.167.186.002.002.165-.188zM.361.465L.176.298.36.465zm.103 1.99l-.168.185.006.006.007.005.155-.196zm.035.029l.164-.19-.01-.006-.154.196zm1.982-.147l-.19-.163.19.163zM2.512.174A1.656 1.656 0 0 0 .176.298l.371.334A1.156 1.156 0 0 1 2.178.546l.334-.372zM.175.298A1.662 1.662 0 0 0 .296 2.64l.336-.37A1.162 1.162 0 0 1 .547.631L.175.298zM.31 2.65c-.002-.002-.002-.002 0 0l.009.007a2.173 2.173 0 0 0 .026.022l.31-.392-.001-.001-.008-.007a2.265 2.265 0 0 0-.026-.022l-.31.393zm.026.022c.304.257.715.4 1.081.403v-.5a1.053 1.053 0 0 1-.754-.281l-.327.378zm1.081.403A1.65 1.65 0 0 0 2.671 2.5l-.38-.326a1.15 1.15 0 0 1-.875.402v.5zM2.67 2.5A1.66 1.66 0 0 0 2.51.172l-.33.376a1.16 1.16 0 0 1 .112 1.626l.378.327z"/><path id="e" d="M1.971.12a1.404 1.404 0 0 0-1.85.716 1.41 1.41 0 0 0 .714 1.86l.048.02a1.406 1.406 0 0 0 1.836-.764A1.41 1.41 0 0 0 1.97.119z"/><path id="f" d="M1.971.12l-.1.228.002.001.098-.23zM.121.835l.23.102L.12.836zm.714 1.86l-.102.228.006.003.096-.23zm.048.02l.096-.23v-.001l-.096.23zm1.836-.764l.231.095-.231-.095zM2.072-.11A1.654 1.654 0 0 0-.107.735L.35.938a1.154 1.154 0 0 1 1.52-.59l.202-.458zM-.107.735a1.66 1.66 0 0 0 .84 2.19l.204-.457A1.16 1.16 0 0 1 .35.938L-.107.735zM.74 2.927l.048.02.192-.462-.048-.02-.192.462zm.048.02c.2.082.43.125.63.126v-.5a1.04 1.04 0 0 1-.438-.088l-.192.462zm.63.126c.652 0 1.27-.386 1.533-1.026l-.462-.19a1.156 1.156 0 0 1-1.07.716v.5zM2.95 2.047a1.66 1.66 0 0 0-.88-2.158l-.197.46c.58.248.856.92.615 1.508l.462.19z"/><path id="g" d="M2.498.526A1.4 1.4 0 0 0 .511.322a1.416 1.416 0 0 0-.193 1.984 1.402 1.402 0 0 0 1.978.202A1.41 1.41 0 0 0 2.498.526z"/><path id="h" d="M2.498.526L2.692.37 2.69.366l-.192.16zM2.483.508L2.68.352 2.676.348l-.193.16zM.511.322L.352.129l.16.193zM.318 2.306l.194-.158-.194.158zm1.978.202l.158.194-.158-.194zM2.69.366L2.685.36 2.678.35l-.39.313.018.022.384-.32zM2.676.348A1.65 1.65 0 0 0 .352.128L.67.516a1.15 1.15 0 0 1 1.62.152l.386-.319zM.352.13a1.666 1.666 0 0 0-.228 2.334l.388-.315A1.166 1.166 0 0 1 .67.515L.352.129zM.124 2.463a1.65 1.65 0 0 0 1.285.611v-.5c-.337 0-.67-.145-.897-.426l-.388.315zm1.285.611a1.76 1.76 0 0 0 1.045-.372l-.316-.388a1.056 1.056 0 0 1-.729.26v.5zm1.045-.373A1.66 1.66 0 0 0 2.692.37l-.388.315a1.16 1.16 0 0 1-.166 1.63l.316.387z"/><path id="i" d="M1.537.006h-.015A1.401 1.401 0 0 0 .005 1.284a1.413 1.413 0 0 0 1.41 1.534A1.41 1.41 0 0 0 1.537.006z"/><path id="j" d="M1.537.006l.022-.25h-.015l-.007.25zm-.015 0L1.5.254h.014l.008-.25zM1.29 2.811l.03-.249h-.008l-.022.249zm1.524-1.279l.25.022-.25-.022zM1.544-.244H1.53l-.016.5h.015l.015-.5zm0 0A1.651 1.651 0 0 0-.244 1.263l.498.044A1.151 1.151 0 0 1 1.5.254l.044-.498zM-.244 1.263a1.663 1.663 0 0 0 1.512 1.798l.044-.498A1.163 1.163 0 0 1 .254 1.307l-.498-.044zM1.26 3.06c.052.006.109.009.155.009v-.5a.72.72 0 0 1-.096-.005l-.059.496zm.155.009c.85 0 1.572-.651 1.648-1.514l-.498-.044a1.158 1.158 0 0 1-1.15 1.058v.5zm1.648-1.514A1.66 1.66 0 0 0 1.56-.243l-.045.498a1.16 1.16 0 0 1 1.05 1.255l.498.044z"/><path id="k" d="M1.79.053L1.736.04a1.41 1.41 0 0 0-.67 2.736 1.403 1.403 0 0 0 1.708-.993A1.408 1.408 0 0 0 1.79.053z"/><path id="l" d="M1.79.053l-.07.24.003.002.066-.242zM1.736.04l.066-.241-.007-.002-.06.243zM.04 1.076l-.243-.06v.001l.243.059zm1.026 1.7l.063-.242h-.002l-.06.242zm1.71-.993l.24.065-.24-.065zm-.918-1.97l-.035-.009-.013-.003-.007-.002-.133.482.033.008.017.005.138-.48zm-.062-.016a1.656 1.656 0 0 0-1.999 1.22l.486.118A1.156 1.156 0 0 1 1.678.283l.118-.486zm-1.999 1.22a1.66 1.66 0 0 0 1.209 2.001l.121-.485a1.16 1.16 0 0 1-.844-1.398l-.486-.118zm1.207 2c.133.035.283.054.416.055v-.5c-.102 0-.188-.01-.29-.038l-.126.484zm.416.055c.728 0 1.396-.486 1.597-1.224l-.483-.13c-.14.514-.606.854-1.114.854v.5zm1.597-1.224A1.658 1.658 0 0 0 1.855-.188l-.132.483c.616.168.98.804.811 1.422l.483.131z"/><path id="m" d="M2.197.244A1.402 1.402 0 0 0 .212.666 1.409 1.409 0 0 0 .656 2.6a1.405 1.405 0 0 0 1.932-.402 1.411 1.411 0 0 0-.39-1.954z"/><path id="n" d="M2.197.244l-.143.205.004.003.14-.208zm-.05-.032l-.132.213.006.004.007.003.119-.22zM.212.666l.212.132L.213.666zM.656 2.6l.136-.21-.003-.002-.133.212zm1.931-.403l.208.14v-.001l-.208-.139zM2.34.04a.902.902 0 0 0-.075-.047l-.237.44a.2.2 0 0 1 .026.017L2.34.04zM2.279 0a1.652 1.652 0 0 0-2.28.535l.426.263a1.152 1.152 0 0 1 1.59-.373L2.279 0zm-2.28.534a1.659 1.659 0 0 0 .523 2.277l.267-.423A1.16 1.16 0 0 1 .424.798L0 .534zM.52 2.81c.269.17.602.263.897.265v-.5a1.05 1.05 0 0 1-.624-.185l-.272.42zm.897.265c.535 0 1.06-.26 1.38-.739l-.417-.277c-.223.335-.59.516-.963.516v.5zm1.38-.74a1.661 1.661 0 0 0-.46-2.299l-.278.416a1.16 1.16 0 0 1 .321 1.607l.416.277z"/><path id="o" d="M1.552.007A1.407 1.407 0 0 0 .009 1.264L.005 1.3a1.412 1.412 0 0 0 1.403 1.537c.72 0 1.333-.549 1.398-1.28l-1.399-.148 1.399.145A1.407 1.407 0 0 0 1.552.007z"/><path id="p" d="M1.552.007l-.026.25.026-.25zM.009 1.264l.249.026-.249-.026zM.005 1.3l-.248-.026v.004l.248.022zm1.277 1.53l.024-.249h-.002l-.022.25zm1.524-1.275l.249.022.021-.244-.244-.026-.026.248zm-1.399-.147l.026-.248-.052.497.026-.249zm1.399.145L2.78 1.8l.249.026.025-.248-.248-.026zM1.577-.241A1.657 1.657 0 0 0-.24 1.239l.498.05A1.157 1.157 0 0 1 1.526.257l.051-.497zM-.24 1.239l-.003.034.497.052.004-.035-.498-.052zm-.004.038c-.08.91.592 1.721 1.504 1.802l.044-.498a1.162 1.162 0 0 1-1.05-1.26l-.498-.044zm1.502 1.802c.05.005.105.006.15.007v-.5a.84.84 0 0 1-.102-.005l-.048.498zm.15.007c.848 0 1.57-.646 1.647-1.509l-.498-.043a1.153 1.153 0 0 1-1.15 1.052v.5zm1.424-1.78L1.433 1.16l-.052.497 1.399.147.052-.497zm-1.45.351l1.398.144.051-.497-1.398-.144-.052.497zm1.672-.078a1.657 1.657 0 0 0-1.477-1.82l-.051.497a1.157 1.157 0 0 1 1.031 1.271l.497.052z"/><path id="q" d="M1.99.125A1.406 1.406 0 0 0 .13.83L.111.874a1.409 1.409 0 0 0 1.295 1.957c.543 0 1.06-.318 1.29-.846a1.41 1.41 0 0 0-.705-1.86z"/><path id="r" d="M1.99.125l-.102.228.103-.228zM.13.83L-.098.727-.1.732.13.83zM.111.874l-.23-.097.23.097zM.86 2.72l.098-.23-.098.23zm1.837-.734l-.228-.102-.001.002.23.1zM2.094-.103a1.656 1.656 0 0 0-2.192.83l.456.205a1.156 1.156 0 0 1 1.53-.58l.206-.455zM-.1.732l-.02.045.46.195.02-.045L-.1.732zm-.02.045A1.659 1.659 0 0 0 .763 2.95l.194-.46A1.159 1.159 0 0 1 .342.97L-.12.777zM.763 2.95c.203.084.437.13.644.131v-.5a1.052 1.052 0 0 1-.45-.092l-.194.46zm.644.131a1.66 1.66 0 0 0 1.52-.997l-.46-.2a1.155 1.155 0 0 1-1.06.697v.5zm1.518-.995a1.66 1.66 0 0 0-.83-2.189l-.206.456c.58.262.84.946.58 1.53l.456.203z"/><path id="s" d="M2.636.726L2.609.68A1.404 1.404 0 0 0 .68.202 1.41 1.41 0 0 0 .197 2.13a1.408 1.408 0 0 0 1.908.516 1.407 1.407 0 0 0 .53-1.919z"/><path id="t" d="M2.636.726l-.219.122.001.001.218-.123zM2.609.68l.219-.122-.004-.007-.215.13zM.68.202L.551-.012l.13.214zM.197 2.13l.216-.126V2l-.216.128zm1.908.516l-.123-.218.123.218zm.749-2.04L2.828.557 2.39.802l.026.046.437-.244zM2.824.55A1.654 1.654 0 0 0 .55-.012l.258.429a1.154 1.154 0 0 1 1.586.392l.429-.258zM.55-.012a1.66 1.66 0 0 0-.569 2.268l.43-.255A1.16 1.16 0 0 1 .81.416L.551-.012zm-.57 2.267c.308.527.862.823 1.433.823v-.5c-.399 0-.786-.207-1-.575l-.433.252zm1.433.823c.265-.001.566-.077.815-.216l-.247-.434c-.188.11-.364.152-.568.15v.5zm.815-.216A1.657 1.657 0 0 0 2.853.603l-.435.246c.315.557.12 1.263-.436 1.578l.247.435z"/><path id="u" d="M2.811 1.333l-.002-.014A1.398 1.398 0 0 0 1.324.003 1.414 1.414 0 0 0 .002 1.498 1.408 1.408 0 0 0 1.49 2.821a1.408 1.408 0 0 0 1.322-1.488z"/><path id="v" d="M2.811 1.333l.25-.015V1.31l-.002-.008-.248.032zm-.002-.014l-.25.014.001.009.001.009.248-.032zM1.324.003l.014.25-.014-.25zM.002 1.498l-.25.015.25-.015zM1.49 2.821l-.015-.25h-.001l.016.25zm1.57-1.52l-.002-.014-.496.064.002.014.496-.064zm0 .003A1.648 1.648 0 0 0 1.31-.247l.03.5a1.149 1.149 0 0 1 1.22 1.08l.5-.029zM1.309-.247a1.664 1.664 0 0 0-1.556 1.76l.499-.03A1.164 1.164 0 0 1 1.338.254l-.029-.5zm-1.556 1.76c.052.88.782 1.56 1.653 1.56v-.5a1.158 1.158 0 0 1-1.154-1.09l-.5.03zm1.653 1.56c.03 0 .067 0 .1-.003l-.033-.499a.951.951 0 0 1-.067.002v.5zm.098-.003A1.658 1.658 0 0 0 3.06 1.318l-.5.03a1.157 1.157 0 0 1-1.087 1.223l.03.5z"/><path id="w" d="M2.718.9l-1.31.509L2.715.896A1.405 1.405 0 0 0 .896.097 1.409 1.409 0 0 0 .107 1.95a1.403 1.403 0 0 0 1.823.777A1.411 1.411 0 0 0 2.718.9z"/><path id="x" d="M2.718.9L2.95.808 2.86.576l-.233.09.09.234zm-1.31.509l-.092-.233.182.466-.09-.233zM2.715.896l.092.233.232-.091-.09-.233-.234.091zM.896.097l.09.233-.09-.233zm-.8 1.824l-.232.091.004.01.005.01.224-.11zm.012.029l-.243.06.004.017.007.016.232-.093zm1.823.777l-.093-.232.093.232zm.696-2.06l-1.31.509.18.466 1.311-.51-.18-.465zM1.5 1.642l1.309-.513-.183-.466-1.309.513.182.466zM2.95.805a1.655 1.655 0 0 0-2.145-.94L.987.33a1.155 1.155 0 0 1 1.497.657l.465-.182zM.804-.135a1.659 1.659 0 0 0-.94 2.147L.33 1.83A1.159 1.159 0 0 1 .986.33L.804-.136zm-.93 2.168a.192.192 0 0 1-.005-.01v.002c0 .001 0 .001 0 0v-.003a.206.206 0 0 1-.004-.012l.485-.12a.46.46 0 0 0-.03-.08l-.447.223zm.002.01c.26.645.879 1.035 1.533 1.035v-.5c-.457 0-.888-.273-1.07-.722l-.463.187zm1.533 1.035a1.76 1.76 0 0 0 .615-.12l-.186-.463c-.148.06-.278.084-.429.083v.5zm.615-.119A1.661 1.661 0 0 0 2.95.809L2.485.99a1.161 1.161 0 0 1-.647 1.504l.186.464z"/><path id="y" d="M2.786 1.137l-.01-.042a1.405 1.405 0 1 0-2.742.62 1.407 1.407 0 0 0 2.752-.578z"/><path id="z" d="M2.786 1.137l-.246.045.001.006.245-.05zm-.01-.042l-.243.056v.002l.244-.058zM1.096.035L1.15.28 1.095.035zM.034 1.715l.244-.052v-.002l-.244.054zm1.659 1.086l.048.245h.003L1.693 2.8zm1.339-1.709a1.505 1.505 0 0 0-.012-.055l-.487.116.005.02.002.008c0 .003 0 .003 0 0l.492-.089zM3.02 1.04A1.655 1.655 0 0 0 1.04-.21l.11.488a1.155 1.155 0 0 1 1.383.871l.487-.11zM1.04-.21A1.659 1.659 0 0 0-.21 1.77l.488-.109A1.159 1.159 0 0 1 1.15.279l-.11-.488zM-.21 1.768a1.657 1.657 0 0 0 1.617 1.311v-.5a1.157 1.157 0 0 1-1.129-.916l-.489.105zm1.617 1.311c.107 0 .226-.012.334-.033l-.096-.49a1.131 1.131 0 0 1-.238.023v.5zm.337-.033a1.66 1.66 0 0 0 1.287-1.96l-.49.102a1.16 1.16 0 0 1-.899 1.368l.102.49z"/><path id="A" d="M1.762.045A1.403 1.403 0 0 0 .05 1.055a1.407 1.407 0 0 0 1.357 1.78c.618 0 1.185-.412 1.356-1.04l.009-.031A1.411 1.411 0 0 0 1.762.045z"/><path id="B" d="M1.762.045l.063-.242-.063.242zM.05 1.055l.241.066.001-.004-.242-.062zm.986 1.73l-.065.24.065-.24zm1.727-.99l-.24-.068-.001.003.241.066zm.009-.031L2.53 1.7l-.003.01-.002.012.247.04zm-.948-1.96A1.653 1.653 0 0 0-.192.992l.484.124C.452.498 1.08.127 1.7.287l.125-.484zM-.19.988A1.657 1.657 0 0 0 .971 3.026l.131-.483a1.157 1.157 0 0 1-.81-1.422L-.192.989zM.971 3.026c.14.037.297.058.436.058v-.5a1.038 1.038 0 0 1-.305-.041l-.13.483zm.436.058c.728 0 1.396-.484 1.597-1.223l-.482-.131c-.14.516-.607.854-1.115.854v.5zm1.596-1.22l.006-.018a.603.603 0 0 0 .01-.041l-.494-.082a.232.232 0 0 1 .002-.013v-.002.005l-.004.014.48.137zm.01-.038A1.661 1.661 0 0 0 1.826-.197L1.7.287c.618.16.99.794.83 1.414l.485.125z"/><path id="C" d="M1.742.04A1.407 1.407 0 0 0 .043 1.077L.04 1.09a1.403 1.403 0 0 0 1.366 1.733c.636 0 1.214-.438 1.371-1.083A1.41 1.41 0 0 0 1.742.04z"/><path id="D" d="M1.742.04L1.8-.203 1.74.04zM.043 1.077l.242.062.001-.003-.243-.06zM.04 1.09l-.242-.063-.001.004.243.059zm1.037 1.693l-.059.243.06-.243zm1.7-1.043l.243.059-.243-.06zM1.8-.203a1.657 1.657 0 0 0-2 1.22l.486.119A1.157 1.157 0 0 1 1.683.283L1.8-.203zM-.199 1.014l-.003.014.484.125.003-.014-.484-.125zm-.004.018a1.653 1.653 0 0 0 1.221 1.995l.118-.486A1.153 1.153 0 0 1 .283 1.15l-.486-.118zm1.222 1.995c.125.03.264.046.387.047v-.5a1.09 1.09 0 0 1-.27-.033l-.117.486zm.387.047c.75 0 1.43-.515 1.614-1.274l-.486-.118c-.13.532-.606.892-1.128.892v.5zM3.02 1.799A1.66 1.66 0 0 0 1.8-.203l-.118.486a1.16 1.16 0 0 1 .852 1.399l.486.117z"/><path id="E" d="M1.956.11C1.239-.19.416.146.116.863L.11.874A1.41 1.41 0 0 0 1.406 2.83c.548 0 1.07-.323 1.296-.86l.007-.016A1.411 1.411 0 0 0 1.956.109z"/><path id="F" d="M1.956.11l.097-.23v-.001l-.097.23zM.116.863l.229.1L.346.96.116.864zM.11.874l-.23-.1v.003l.23.097zM.86 2.72l-.098.23h.001l.097-.23zm1.842-.75l-.227-.107-.003.01.23.096zm.007-.016l.227.106.004-.01-.23-.096zM2.052-.121A1.656 1.656 0 0 0-.115.768L.346.96C.593.37 1.27.093 1.86.34l.193-.462zM-.114.765l-.004.01.458.199.005-.01-.459-.2zm-.005.012A1.66 1.66 0 0 0 .762 2.95l.195-.46A1.16 1.16 0 0 1 .341.971l-.46-.195zM.763 2.95c.203.084.437.13.643.13v-.5a1.065 1.065 0 0 1-.45-.09l-.193.46zm.643.13c.646 0 1.26-.38 1.526-1.014l-.46-.194a1.156 1.156 0 0 1-1.066.708v.5zm1.522-1.005l.007-.015-.452-.213-.007.016.452.212zm.012-.025a1.661 1.661 0 0 0-.887-2.17l-.194.46c.589.248.866.927.62 1.518l.46.192z"/><path id="G" d="M2.778 1.097a1.406 1.406 0 1 0-2.743.623l.008.033a1.411 1.411 0 0 0 1.7 1.04 1.406 1.406 0 0 0 1.035-1.696z"/><path id="H" d="M2.778 1.097l-.244.055v.004l.244-.06zM1.095.035L1.15.28 1.095.035zM.035 1.72l-.244.056.003.009.241-.065zm.008.033l.243-.059-.002-.01-.003-.01-.238.08zm1.7 1.04l.057.244h.001l-.059-.243zm1.279-1.752a1.656 1.656 0 0 0-1.983-1.25L1.15.28a1.156 1.156 0 0 1 1.384.873l.488-.11zM1.039-.209A1.658 1.658 0 0 0-.209 1.777l.488-.11A1.158 1.158 0 0 1 1.15.278l-.11-.487zM-.206 1.786c0-.002-.001-.003 0 0l.002.01a1.061 1.061 0 0 0 .01.037l.475-.158a.22.22 0 0 1 .003.011v.001L.283 1.68.28 1.67a.925.925 0 0 0-.003-.014l-.483.129zm.006.027a1.66 1.66 0 0 0 1.61 1.271v-.5c-.52 0-.995-.358-1.124-.889l-.486.118zm1.61 1.271c.124 0 .264-.016.39-.046l-.116-.486a1.072 1.072 0 0 1-.273.032v.5zm.391-.046a1.656 1.656 0 0 0 1.22-2l-.486.119c.15.62-.23 1.244-.852 1.395l.118.486z"/><path id="I" d="M2.61.681A1.405 1.405 0 0 0 .68.202a1.41 1.41 0 0 0-.477 1.934c.002.006.013.022.016.028A1.406 1.406 0 1 0 2.61.68z"/><path id="J" d="M2.61.681l-.214.13.002.002.212-.132zM.68.202L.55-.012l.13.214zM.203 2.136l.223-.112-.004-.008-.005-.009-.214.13zm.016.028l-.216.125.003.006.213-.131zm1.937.456l.132.212-.132-.212zM2.824.553A1.655 1.655 0 0 0 .55-.012l.26.429A1.155 1.155 0 0 1 2.396.81l.428-.257zM.55-.011a1.66 1.66 0 0 0-.562 2.276l.429-.258A1.16 1.16 0 0 1 .809.417L.55-.012zm-.57 2.259a.31.31 0 0 0 .017.03l.005.01.002.001.432-.251a.672.672 0 0 0-.006-.01l-.004-.007a.278.278 0 0 1-.003-.005v.001l.004.007-.447.224zm.027.047c.314.507.857.786 1.41.786v-.5c-.387 0-.766-.195-.985-.549l-.425.263zm1.41.786a1.76 1.76 0 0 0 .872-.249l-.264-.425a1.052 1.052 0 0 1-.607.174v.5zm.872-.25A1.658 1.658 0 0 0 2.823.55l-.425.263c.337.544.17 1.256-.374 1.594l.264.425z"/><path id="K" d="M2.809 1.305a1.406 1.406 0 1 0-2.805.207l.002.013A1.4 1.4 0 0 0 1.509 2.82a1.413 1.413 0 0 0 1.3-1.515z"/><path id="L" d="M2.809 1.305l-.25.018.25-.018zM1.304.004l.018.25-.018-.25zm-1.3 1.508l-.25.018.001.007.001.008.248-.033zm.002.013l.249-.018V1.5l-.002-.008-.247.033zM1.509 2.82l-.018-.25.018.25zm1.55-1.534A1.656 1.656 0 0 0 1.284-.245l.037.498a1.156 1.156 0 0 1 1.238 1.07l.498-.037zM1.284-.245A1.658 1.658 0 0 0-.245 1.53l.498-.037A1.158 1.158 0 0 1 1.322.253l-.037-.498zm-1.529 1.79l.002.013.495-.066-.001-.013-.496.066zm0-.002a1.65 1.65 0 0 0 1.648 1.53v-.5c-.6 0-1.105-.458-1.149-1.066l-.499.036zm1.648 1.53c.04 0 .085-.001.125-.004l-.039-.498c-.03.002-.056.003-.086.003v.5zm.124-.004a1.663 1.663 0 0 0 1.53-1.783l-.498.037c.047.64-.433 1.2-1.069 1.247l.037.5z"/><path id="M" d="M1.531.006A1.407 1.407 0 0 0 .007 1.285l-.003.034a1.41 1.41 0 0 0 1.404 1.516c.73 0 1.346-.562 1.4-1.302A1.407 1.407 0 0 0 1.531.006z"/><path id="N" d="M1.531.006L1.51.255l.022-.25zM.007 1.285l.249.023v-.001l-.249-.022zm-.003.034l-.25-.023v.005l.25.018zm1.3 1.511l-.019.25h.002l.017-.25zm1.504-1.297L2.56 1.51v.003l.25.019zM1.553-.243A1.657 1.657 0 0 0-.242 1.263l.498.044A1.157 1.157 0 0 1 1.509.255l.044-.498zM-.242 1.262l-.003.034.498.046.003-.034-.498-.046zm-.004.039A1.66 1.66 0 0 0 1.285 3.08l.037-.499A1.16 1.16 0 0 1 .253 1.337l-.499-.036zM1.287 3.08l.121.005v-.5c-.028 0-.055-.002-.088-.004l-.033.499zm.121.005c.859 0 1.585-.662 1.65-1.534l-.5-.037a1.155 1.155 0 0 1-1.15 1.07v.5zm1.65-1.53A1.657 1.657 0 0 0 1.552-.243L1.51.255A1.157 1.157 0 0 1 2.56 1.51l.498.044z"/><path id="O" d="M2.794 1.116A1.405 1.405 0 0 0 1.127.03l-.048.01a1.408 1.408 0 0 0 .647 2.742 1.408 1.408 0 0 0 1.068-1.667z"/><path id="P" d="M2.794 1.116l-.244.052.244-.052zM1.127.03l.05.245h.002L1.127.03zm-.048.01l-.05-.245-.008.002.058.243zM.039 1.737l-.244.058.244-.058zm1.687 1.046l-.055-.244h-.003l.058.244zm1.313-1.719A1.655 1.655 0 0 0 1.075-.213l.104.489a1.155 1.155 0 0 1 1.37.892l.49-.104zM1.077-.214l-.048.01.1.49.049-.01-.101-.49zm-.056.012A1.658 1.658 0 0 0-.205 1.795l.487-.115A1.158 1.158 0 0 1 1.137.284l-.116-.486zM-.205 1.795A1.658 1.658 0 0 0 1.406 3.07v-.5c-.523 0-.998-.357-1.124-.89l-.487.116zM1.406 3.07c.12 0 .255-.015.377-.043l-.115-.487c-.092.022-.17.03-.262.03v.5zm.374-.043a1.658 1.658 0 0 0 1.26-1.963l-.49.104a1.158 1.158 0 0 1-.878 1.37l.11.488z"/><path id="Q" d="M2.636.706A1.404 1.404 0 0 0 .664.219a1.41 1.41 0 0 0 .744 2.605c.25 0 .502-.066.731-.205A1.41 1.41 0 0 0 2.636.706z"/><path id="R" d="M2.636.706L2.419.83l.217-.124zM.716.189L.59-.028.578-.02l.137.209zm-.052.03L.543 0 .532.007.664.22zM.211 2.16L0 2.29l.212-.132zm1.928.46l-.128-.215-.002.001.13.214zM2.852.58A1.654 1.654 0 0 0 .59-.028l.25.433A1.156 1.156 0 0 1 2.42.83l.433-.249zM.578-.02A.556.556 0 0 1 .543 0l.242.438a.852.852 0 0 0 .068-.04L.578-.02zM.532.007A1.66 1.66 0 0 0-.001 2.29l.425-.263A1.16 1.16 0 0 1 .796.432L.532.007zM-.001 2.29c.314.507.855.784 1.409.784v-.5c-.388 0-.765-.194-.984-.547l-.425.263zm1.409.784c.282-.002.6-.086.862-.242l-.26-.427a1.053 1.053 0 0 1-.602.17v.5zm.86-.24A1.66 1.66 0 0 0 2.852.58L2.42.83a1.16 1.16 0 0 1-.408 1.573l.257.43z"/><path id="S" d="M2.736.914A1.406 1.406 0 0 0 .87.112 1.407 1.407 0 0 0 .107 1.95a1.407 1.407 0 0 0 1.827.77A1.41 1.41 0 0 0 2.736.913z"/><path id="T" d="M2.736.914L2.97.827l-.234.087zM.926.09l.08.236.007-.002L.925.09zM.87.112l.095.23.004-.001-.1-.23zM.107 1.95l.231-.095-.23.095zm1.827.77l-.091-.234-.003.001.094.232zM2.97.825a1.656 1.656 0 0 0-2.132-.97l.175.468a1.156 1.156 0 0 1 1.49.678L2.97.826zM.844-.146a.938.938 0 0 0-.074.028l.2.459a.618.618 0 0 1 .037-.015L.844-.146zm-.07.027a1.657 1.657 0 0 0-.898 2.164l.462-.19A1.157 1.157 0 0 1 .965.343L.775-.12zm-.898 2.164c.264.64.881 1.027 1.532 1.027v-.5c-.455 0-.886-.27-1.07-.717l-.462.19zm1.532 1.027c.2-.001.424-.043.62-.121l-.188-.464a1.047 1.047 0 0 1-.432.085v.5zm.618-.12A1.66 1.66 0 0 0 2.97.827l-.468.175a1.16 1.16 0 0 1-.66 1.484l.184.466z"/><path id="U" d="M2.498.509A1.404 1.404 0 0 0 .518.325l-.02.017a1.41 1.41 0 0 0 .91 2.483 1.4 1.4 0 0 0 .907-.333A1.41 1.41 0 0 0 2.498.51z"/><path id="V" d="M2.498.509l-.192.16.192-.16zM.518.325l.16.193V.517L.518.325zm-.02.017L.338.149.336.151l.162.191zM.333 2.327l.191-.162-.191.162zm1.982.165l-.16-.192-.001.001.161.191zM2.691.35A1.654 1.654 0 0 0 .359.133l.32.384a1.155 1.155 0 0 1 1.627.151L2.69.35zM.359.132L.34.15l.318.386.02-.017L.36.132zm-.023.02a1.66 1.66 0 0 0-.194 2.336l.382-.323A1.16 1.16 0 0 1 .659.533L.336.15zM.142 2.487a1.65 1.65 0 0 0 1.265.587v-.5a1.15 1.15 0 0 1-.883-.41l-.382.323zm1.265.587a1.76 1.76 0 0 0 1.07-.392L2.154 2.3a1.058 1.058 0 0 1-.747.274v.5zm1.068-.39A1.66 1.66 0 0 0 2.691.348l-.385.32a1.16 1.16 0 0 1-.15 1.631l.32.384z"/><path id="W" d="M2.342.351A1.405 1.405 0 0 0 .357.478L.341.497A1.404 1.404 0 0 0 1.405 2.82 1.41 1.41 0 0 0 2.342.35z"/><path id="X" d="M2.342.351l.166-.187-.166.187zM.357.478L.17.313.162.322l.195.156zM.341.497l.19.163.002-.003-.192-.16zm.143 1.978l-.164.188.164-.188zm1.985-.136l-.188-.165.188.165zM2.508.164A1.655 1.655 0 0 0 .169.313l.376.33A1.155 1.155 0 0 1 2.177.539l.33-.375zM.162.322A.215.215 0 0 1 .164.319s.001 0 0 0L.166.317v.001A2.008 2.008 0 0 1 .16.324L.155.33a.996.996 0 0 0-.006.007l.384.32c0 .001-.001.001 0 0L.54.65A2.618 2.618 0 0 0 .547.64L.553.635.162.322zm-.01.011a1.654 1.654 0 0 0 .168 2.33l.329-.376A1.154 1.154 0 0 1 .53.66L.152.333zm.168 2.33c.304.26.716.403 1.085.407v-.5a1.05 1.05 0 0 1-.756-.284l-.33.377zm1.085.407c.462 0 .923-.192 1.252-.566l-.376-.33c-.23.261-.552.396-.876.396v.5zm1.252-.566a1.66 1.66 0 0 0-.15-2.34l-.33.375a1.16 1.16 0 0 1 .104 1.635l.376.33z"/><path id="Y" d="M2.709.878A1.405 1.405 0 0 0 .877.104a1.408 1.408 0 0 0-.773 1.834l.01.028a1.41 1.41 0 0 0 1.841.755A1.408 1.408 0 0 0 2.71.878z"/><path id="Z" d="M2.709.878l-.232.094.001.003.23-.097zM.104 1.938l.237-.08-.003-.007-.003-.007-.231.094zm.01.028l-.235.086.005.011.23-.097zm1.841.755l.097.23-.097-.23zM2.94.785A1.655 1.655 0 0 0 .783-.128L.97.336a1.155 1.155 0 0 1 1.506.636L2.94.785zM.783-.128a1.658 1.658 0 0 0-.91 2.16l.462-.188A1.158 1.158 0 0 1 .971.336L.783-.128zm-.916 2.145a.341.341 0 0 0 .01.026l.002.008c.001.003.001.002 0 0l.47-.17a.432.432 0 0 0-.002-.006L.346 1.87l-.004-.008a.773.773 0 0 1-.002-.007l.001.004-.474.158zm.017.046a1.66 1.66 0 0 0 1.53 1.018v-.5a1.16 1.16 0 0 1-1.07-.711l-.46.193zm1.53 1.018c.204 0 .437-.046.638-.13l-.193-.46a1.055 1.055 0 0 1-.446.09v.5zm.638-.13A1.658 1.658 0 0 0 2.94.782l-.46.194a1.16 1.16 0 0 1-.62 1.516l.193.46z"/><path id="aa" d="M2.155.212A1.403 1.403 0 0 0 .219.667L.21.678a1.403 1.403 0 0 0 1.193 2.143c.472 0 .937-.238 1.204-.67.41-.66.207-1.528-.453-1.939z"/><path id="ab" d="M2.155.212l-.132.213.132-.213zM.219.667l.207.14L.43.798.22.667zM.21.678L.004.538l-.005.008.212.132zm.457 1.934l-.132.212.132-.212zm1.94-.46l-.213-.132.213.132zM2.287 0A1.653 1.653 0 0 0 .006.535l.425.263A1.153 1.153 0 0 1 2.023.425L2.287 0zM.012.526L.004.538l.414.28.008-.01L.012.525zm-.013.02a1.653 1.653 0 0 0 .537 2.278L.8 2.399A1.153 1.153 0 0 1 .423.81L0 .547zm.537 2.278c.262.16.583.245.868.247v-.5A1.047 1.047 0 0 1 .799 2.4l-.263.425zm.868.247c.555 0 1.102-.28 1.416-.788l-.425-.263c-.22.354-.601.551-.991.551v.5zm1.416-.788c.483-.778.244-1.8-.533-2.283l-.264.425c.543.337.71 1.051.372 1.595l.425.263z"/><path id="ac" d="M0 15V0l13.5 7L0 15z"/><path id="ad" d="M70.594 53.69h-2.231l-.019-.031-23.279-34.594a4.078 4.078 0 0 0-1.979-1.552v-3.926l9.279-5.772a1.408 1.408 0 0 0-.18-2.48L42.25.12a1.403 1.403 0 0 0-1.975 1.287v16.104a4.068 4.068 0 0 0-1.979 1.553l-9.535 14.17-2.268-3.37a4.075 4.075 0 0 0-3.384-1.803c-1.36 0-2.625.673-3.385 1.803L3.69 53.69H1.406a1.407 1.407 0 0 0 0 2.817h69.188c.777 0 1.406-.63 1.406-1.409 0-.778-.63-1.408-1.406-1.408zM43.086 3.574l5.544 3.264-5.544 3.423V3.574zM7.083 53.69l14.972-22.25c.24-.356.624-.56 1.053-.56.429 0 .813.204 1.053.56l2.903 4.315-4.984 7.408a1.41 1.41 0 0 0 .38 1.955 1.404 1.404 0 0 0 1.951-.38l16.217-24.1a1.25 1.25 0 0 1 1.052-.56c.43 0 .813.204 1.053.56L64.974 53.69H7.083z"/><path id="ae" d="M68.363 53.69l-.212.134.074.116h.138v-.25zm-.019-.031l-.207.14.002.002.205-.142zM45.065 19.065l.208-.14-.208.14zm-1.979-1.552h-.25v.174l.164.06.086-.234zm0-3.926l-.132-.212-.118.073v.14h.25zm9.279-5.772l.131.213.002-.001-.133-.212zm.654-1.294l-.25.018.25-.018zm-.833-1.186l-.117.221.008.004.007.003.102-.228zM42.249.12l.116-.221-.007-.004-.007-.003-.102.228zm-1.336.107l-.137-.21.137.21zm-.64 17.284l.087.235.164-.06v-.175h-.25zm-1.978 1.553l.208.14-.208-.14zm-9.535 14.17l-.207.14.207.308.207-.309-.207-.139zm-2.268-3.37l.208-.14-.207.14zm-6.77 0l.208.14-.207-.14zM3.692 53.69v.25h.133l.074-.11-.207-.14zM43.086 3.574l.127-.216-.377-.222v.438h.25zm5.544 3.264l.131.212.353-.218-.357-.21-.127.216zm-5.544 3.423h-.25v.448l.382-.236-.132-.213zM7.083 53.69h-.25v.82l.457-.68-.207-.14zm14.972-22.25l-.207-.14.207.14zm2.106 0l.207-.14-.207.14zm2.903 4.315l.208.14.094-.14-.094-.14-.207.14zm-4.984 7.408l.207.14-.207-.14zm.38 1.955l.14-.207-.14.207zm1.951-.38l-.207-.14.207.14zm16.217-24.1l.208.14-.208-.14zm2.105 0l.208-.139-.208.14zM64.974 53.69v.25h.47l-.262-.39-.208.14zm-57.891 0v-.25h-.25v.25h.25zm63.51-.25h-2.23v.5h2.23v-.5zm-2.02.117c.002.003.004.006-.001-.003a.4.4 0 0 0-.023-.037l-.41.285-.004-.005.006.01.01.018.423-.268zm-.021-.037l-23.28-34.593-.414.279 23.279 34.593.415-.279zm-23.28-34.593a4.436 4.436 0 0 0-2.1-1.648l-.172.47a3.73 3.73 0 0 1 1.858 1.457l.415-.28zm-1.936-1.413v-3.926h-.5v3.926h.5zM43.22 13.8l9.277-5.772-.264-.425-9.278 5.772.264.425zm9.279-5.773c.518-.327.815-.912.77-1.524l-.498.037a1.16 1.16 0 0 1-.539 1.064l.267.423zm.77-1.523a1.657 1.657 0 0 0-.98-1.398l-.204.457c.391.174.655.549.685.976l.5-.035zm-.966-1.39L42.365-.1l-.232.442 9.936 5.214.233-.443zM42.35-.108a1.653 1.653 0 0 0-1.575.125l.273.42a1.153 1.153 0 0 1 1.099-.089l.203-.456zm-1.575.126a1.66 1.66 0 0 0-.752 1.39h.5c0-.392.197-.758.525-.972L40.776.02zm-.752 1.39v11.378h.5V1.408h-.5zm0 11.378v.045h.5v-.045h-.5zm0 .045v4.68h.5v-4.68h-.5zm.163 4.446a4.425 4.425 0 0 0-2.1 1.648l.416.278a3.717 3.717 0 0 1 1.857-1.457l-.172-.47zm-2.1 1.647l-9.534 14.17.414.28 9.536-14.17-.415-.28zm-9.12 14.17l-2.267-3.37-.415.28 2.268 3.37.414-.28zm-2.267-3.37a4.325 4.325 0 0 0-3.592-1.914v.5c1.276 0 2.463.633 3.177 1.693l.415-.279zm-3.592-1.914a4.323 4.323 0 0 0-3.593 1.914l.415.28a3.823 3.823 0 0 1 3.178-1.694v-.5zm-3.593 1.914L3.483 53.55l.415.28L19.93 30.003l-.415-.279zM3.691 53.44H1.406v.5h2.285v-.5zm-2.285 0c-.914 0-1.656.742-1.656 1.658h.5c0-.64.518-1.158 1.156-1.158v-.5zM-.25 55.098c0 .916.742 1.659 1.656 1.659v-.5A1.158 1.158 0 0 1 .25 55.098h-.5zm1.656 1.659h3.03v-.5h-3.03v.5zm3.03 0h.003v-.5h-.003v.5zm.003 0h.001v-.5.5zm.001 0h66.154v-.5H4.44v.5zm66.154 0c.915 0 1.656-.743 1.656-1.659h-.5c0 .64-.518 1.159-1.156 1.159v.5zm1.656-1.659c0-.916-.741-1.658-1.656-1.658v.5c.638 0 1.156.518 1.156 1.158h.5zM42.96 3.789l5.543 3.264.254-.43-5.544-3.265-.253.431zm5.538 2.836l-5.543 3.423.263.425L48.76 7.05l-.263-.425zm-5.162 3.636V3.574h-.5v6.687h.5zM7.29 53.828l14.973-22.25-.415-.279L6.876 53.55l.414.28zm14.972-22.25c.195-.287.5-.45.846-.45v-.5c-.512 0-.973.246-1.26.67l.414.28zm.846-.45c.346 0 .652.164.845.45l.415-.279a1.501 1.501 0 0 0-1.26-.67v.5zm.845.45l2.904 4.316.415-.28-2.904-4.315-.415.28zm2.904 4.036l-4.985 7.408.415.28 4.985-7.408-.415-.28zm-4.985 7.408a1.66 1.66 0 0 0 .448 2.302l.28-.414a1.16 1.16 0 0 1-.313-1.608l-.415-.28zm.448 2.302a1.654 1.654 0 0 0 2.299-.448l-.416-.279c-.356.53-1.074.67-1.603.313l-.28.414zm2.298-.448l16.218-24.099-.415-.279-16.217 24.1.414.279zm16.218-24.099a1 1 0 0 1 .844-.45v-.5a1.5 1.5 0 0 0-1.259.671l.415.28zm.844-.45c.346 0 .652.163.846.45l.415-.279a1.501 1.501 0 0 0-1.26-.671v.5zm.846.45l22.24 33.051.416-.28L42.94 20.5l-.415.28zM64.974 53.44H7.083v.5h57.891v-.5zm-58.141.25h.5-.5z"/><path id="af" d="M2.812 1.409a1.407 1.407 0 1 1-2.812 0 1.407 1.407 0 1 1 2.812 0z"/><path id="ag" d="M1.406 0v-.25V0zm1.156 1.409c0 .64-.517 1.158-1.156 1.158v.5c.916 0 1.656-.743 1.656-1.658h-.5zM1.406 2.567A1.157 1.157 0 0 1 .25 1.409h-.5c0 .915.741 1.658 1.656 1.658v-.5zM.25 1.409C.25.768.768.25 1.406.25v-.5C.491-.25-.25.492-.25 1.409h.5zM1.406.25c.638 0 1.156.518 1.156 1.159h.5c0-.916-.74-1.659-1.656-1.659v.5z"/></defs></svg>