<svg width="14" height="12" viewBox="0 0 14 12" xmlns="http://www.w3.org/2000/svg" xmlns:xlink="http://www.w3.org/1999/xlink"><title>Vector</title><desc>Created using Figma</desc><use xlink:href="#a" fill="#299A3B"/><defs><path id="a" d="M.168 6.647c-.165.25-.254.469-.049.638C2.078 8.909 3.676 10.334 4.8 11.69c.365.44.606.396.932-.02 2.46-3.122 5.205-5.675 8.032-7.833.313-.239.279-.547.106-.984-.315-.803-.654-1.679-1.223-2.55-.24-.367-.484-.384-.786-.135C9.42 2.17 7.305 4.144 5.568 6.155c-.284.327-.571.284-.923-.05-.822-.778-1.581-1.346-2.174-1.824-.346-.278-.62-.256-.866.106-.53.778-.97 1.555-1.437 2.26z"/></defs></svg>